<svg width="248" height="56" viewBox="0 0 248 56" fill="none" xmlns="http://www.w3.org/2000/svg">
<path d="M9.792 50.368C9.536 50.2827 9.25867 50.2187 8.96 50.176C8.704 50.1333 8.42667 50.0693 8.128 49.984L8.448 50.176C8.27733 50.176 8.10667 50.1333 7.936 50.048C7.808 50.0053 7.68 50.0053 7.552 50.048L6.336 49.728L6.272 49.664C6.10133 49.4933 5.93067 49.344 5.76 49.216C5.58933 49.088 5.35467 49.0667 5.056 49.152C5.14133 49.1947 5.22667 49.216 5.312 49.216C5.39733 49.216 5.46133 49.2587 5.504 49.344H5.376C5.20533 49.344 5.07733 49.3013 4.992 49.216C4.90667 49.1307 4.8 49.0453 4.672 48.96C4.032 48.576 3.456 48.128 2.944 47.616V47.552C2.77333 47.3387 2.64533 47.1253 2.56 46.912C2.47467 46.656 2.32533 46.464 2.112 46.336H2.048C1.92 46.08 1.792 45.8027 1.664 45.504C1.57867 45.1627 1.49333 44.8427 1.408 44.544C1.408 44.416 1.38667 44.3093 1.344 44.224C1.344 44.096 1.344 43.968 1.344 43.84C1.344 43.6693 1.344 43.52 1.344 43.392C1.38667 43.2213 1.42933 43.0507 1.472 42.88C1.25867 42.9653 1.152 42.9013 1.152 42.688C1.10933 42.2187 1.088 41.7493 1.088 41.28C1.13067 40.8107 1.19467 40.2987 1.28 39.744L1.472 38.784C1.55733 38.5707 1.68533 38.4213 1.856 38.336C2.02667 38.2507 2.09067 38.1013 2.048 37.888C2.00533 37.888 1.96267 37.9093 1.92 37.952C1.87733 37.9947 1.81333 38.016 1.728 38.016C1.728 38.016 1.70667 38.016 1.664 38.016C1.664 37.9733 1.664 37.9307 1.664 37.888H1.728V37.824C1.68533 37.7813 1.68533 37.76 1.728 37.76C1.77067 37.76 1.77067 37.7387 1.728 37.696V37.632C1.728 37.4187 1.792 37.2053 1.92 36.992C2.048 36.736 2.15467 36.48 2.24 36.224C2.32533 36.0107 2.45333 35.8187 2.624 35.648C2.83733 35.4773 2.90133 35.264 2.816 35.008H2.624C2.752 34.9227 2.816 34.8373 2.816 34.752L2.88 34.688L3.52 33.344H3.584C3.92533 33.344 4.07467 33.2587 4.032 33.088C4.032 32.9173 4.032 32.7253 4.032 32.512V32.448L4.544 31.616C4.8 31.488 4.97067 31.296 5.056 31.04C5.14133 30.7413 5.26933 30.5067 5.44 30.336C5.52533 30.1227 5.65333 29.952 5.824 29.824C5.99467 29.6533 6.144 29.4613 6.272 29.248C6.528 28.9067 6.784 28.5867 7.04 28.288C7.296 27.9467 7.57333 27.6267 7.872 27.328C8.08533 27.2427 8.23467 27.136 8.32 27.008C8.40533 26.88 8.512 26.7307 8.64 26.56C8.64 26.5173 8.64 26.496 8.64 26.496C8.68267 26.496 8.704 26.4747 8.704 26.432C8.832 26.2613 9.00267 26.1547 9.216 26.112C9.42933 26.0693 9.57867 25.9413 9.664 25.728C9.74933 25.5147 9.87733 25.3227 10.048 25.152C10.3893 24.8107 10.752 24.4907 11.136 24.192C11.52 23.8507 11.904 23.5307 12.288 23.232C12.544 23.1893 12.736 23.1467 12.864 23.104C12.992 23.0187 13.056 22.848 13.056 22.592H13.12C13.5893 22.2507 14.0587 21.9307 14.528 21.632C14.9973 21.3333 15.4453 21.056 15.872 20.8C16.2133 20.5867 16.5333 20.3947 16.832 20.224C17.1733 20.0533 17.4933 19.8827 17.792 19.712H17.984C18.1547 19.712 18.2827 19.6693 18.368 19.584C18.4533 19.4987 18.56 19.392 18.688 19.264H18.752C21.9093 17.856 24.832 17.152 27.52 17.152C27.8613 17.152 28.224 17.1733 28.608 17.216C28.992 17.216 29.3547 17.2373 29.696 17.28C31.7013 17.536 33.216 18.1973 34.24 19.264C35.264 20.288 35.776 21.4187 35.776 22.656C35.776 23.0827 35.712 23.5307 35.584 24C36.0107 23.7013 36.3947 23.4027 36.736 23.104C37.0773 22.8053 37.3547 22.464 37.568 22.08C37.6533 21.952 37.76 21.9093 37.888 21.952C38.016 21.952 38.0373 22.016 37.952 22.144C37.824 22.528 37.5467 22.9547 37.12 23.424C36.6933 23.8507 36.224 24.2347 35.712 24.576C35.712 24.6187 35.6053 24.768 35.392 25.024C35.1787 25.2373 35.0933 25.3867 35.136 25.472C35.136 25.5147 35.072 25.6 34.944 25.728C34.8587 25.8133 34.7947 25.8987 34.752 25.984L34.304 26.56C34.304 26.56 34.304 26.5813 34.304 26.624C34.304 26.624 34.2827 26.6453 34.24 26.688C34.24 26.688 34.1547 26.7307 33.984 26.816C33.8987 26.9013 33.7707 27.0507 33.6 27.264C33.472 27.4773 33.3013 27.6267 33.088 27.712L32.832 27.84C32.7893 27.8827 32.7467 27.9467 32.704 28.032C32.6613 28.0747 32.5973 28.1387 32.512 28.224C32.3413 28.3947 32.0213 28.608 31.552 28.864C31.1253 29.0773 30.8053 29.2693 30.592 29.44C30.592 29.44 30.5493 29.4613 30.464 29.504C30.3787 29.5467 30.272 29.6107 30.144 29.696L29.952 29.76C29.9093 29.76 29.824 29.8027 29.696 29.888C29.6107 29.9733 29.5467 30.0373 29.504 30.08C29.4613 30.1227 29.3973 30.144 29.312 30.144C29.2693 30.144 29.2053 30.1867 29.12 30.272C29.0773 30.3147 29.0133 30.336 28.928 30.336C28.8427 30.336 28.7573 30.3787 28.672 30.464L27.712 30.72C27.6693 30.7627 27.5413 30.848 27.328 30.976C27.1573 31.0613 27.0507 31.104 27.008 31.104H26.88C26.8373 31.104 26.7947 31.1253 26.752 31.168C26.752 31.2107 26.7093 31.232 26.624 31.232C26.5813 31.2747 26.5173 31.296 26.432 31.296C26.3893 31.2533 26.3253 31.2533 26.24 31.296C26.1973 31.296 26.1333 31.3387 26.048 31.424C26.0053 31.4667 25.9627 31.488 25.92 31.488H25.728L25.344 31.68C25.1733 31.7227 24.9813 31.744 24.768 31.744C24.5973 31.744 24.4053 31.7867 24.192 31.872C24.1493 31.872 24.064 31.8507 23.936 31.808C23.8507 31.7653 23.7653 31.744 23.68 31.744C23.296 31.872 22.912 31.936 22.528 31.936C22.4853 31.9787 22.4427 31.9787 22.4 31.936C22.4 31.8933 22.3787 31.872 22.336 31.872C22.2933 31.872 22.272 31.8933 22.272 31.936C22.272 31.936 22.2507 31.936 22.208 31.936C22.208 31.936 22.144 31.936 22.016 31.936C21.9307 31.8933 21.8667 31.8507 21.824 31.808H21.76C21.6747 31.808 21.6107 31.7867 21.568 31.744C21.5253 31.7013 21.4827 31.68 21.44 31.68C21.44 31.68 21.44 31.7013 21.44 31.744C21.44 31.744 21.4187 31.744 21.376 31.744C21.3333 31.744 21.2907 31.7227 21.248 31.68C21.1627 31.68 21.0133 31.6587 20.8 31.616C20.6293 31.5307 20.5227 31.4667 20.48 31.424C20.352 31.4667 20.224 31.424 20.096 31.296C20.0107 31.2107 19.968 31.1893 19.968 31.232L19.52 31.04C19.52 30.9973 19.4987 30.976 19.456 30.976C19.456 30.9333 19.456 30.912 19.456 30.912H19.328C19.2427 30.8267 19.1787 30.784 19.136 30.784C19.0933 30.656 19.0507 30.5707 19.008 30.528C18.9653 30.4853 18.9013 30.4213 18.816 30.336C18.816 30.1653 18.7947 30.08 18.752 30.08C18.752 29.9947 18.688 29.8667 18.56 29.696C18.4747 29.4827 18.432 29.2907 18.432 29.12L18.368 29.056C18.1973 28.8853 18.1547 28.5867 18.24 28.16C18.2827 27.9467 18.2613 27.8613 18.176 27.904C18.0907 27.904 18.112 27.776 18.24 27.52L18.56 26.88C18.56 26.8373 18.5387 26.816 18.496 26.816C18.4533 26.7733 18.4533 26.7307 18.496 26.688C18.496 26.6453 18.496 26.624 18.496 26.624C18.5387 26.5813 18.56 26.5387 18.56 26.496C18.6027 26.4533 18.624 26.368 18.624 26.24C18.624 26.1547 18.6453 26.0907 18.688 26.048C18.688 26.0053 18.7307 25.92 18.816 25.792C18.944 25.6213 19.0293 25.5147 19.072 25.472L19.456 25.024C19.4987 24.9813 19.5627 24.9387 19.648 24.896C19.7333 24.8533 19.7973 24.7893 19.84 24.704C19.9253 24.6187 20.0107 24.576 20.096 24.576C20.224 24.5333 20.3093 24.4693 20.352 24.384C20.48 24.1707 20.6293 24.064 20.8 24.064H20.928C21.0987 24.064 21.184 24.1067 21.184 24.192C21.184 24.4053 21.056 24.576 20.8 24.704C20.6293 24.8747 20.544 24.96 20.544 24.96C20.544 24.9173 20.48 24.96 20.352 25.088C20.352 25.1307 20.3093 25.152 20.224 25.152C20.1813 25.152 20.16 25.1947 20.16 25.28C20.1173 25.28 20.1173 25.3013 20.16 25.344C20.2027 25.3867 20.2027 25.4507 20.16 25.536C20.16 25.7067 20.16 25.792 20.16 25.792C20.1173 25.8347 20.1173 25.8987 20.16 25.984C20.2027 26.0267 20.2027 26.0907 20.16 26.176C20.1173 26.176 20.0747 26.1973 20.032 26.24L19.968 27.136C19.968 27.136 19.9893 27.264 20.032 27.52C20.0747 27.7333 20.0747 27.8613 20.032 27.904V28.224C20.032 28.352 20.224 28.48 20.608 28.608C20.6507 28.6507 20.6933 28.672 20.736 28.672C20.8213 28.6293 20.8853 28.6293 20.928 28.672C21.4827 28.8427 21.8453 28.9707 22.016 29.056C22.1867 29.0987 22.5707 29.12 23.168 29.12H23.68C23.8933 29.12 24.0853 29.0987 24.256 29.056C24.2987 29.056 24.2987 29.0773 24.256 29.12C24.256 29.12 24.2773 29.12 24.32 29.12L25.088 28.992C25.1307 28.9493 25.1733 28.928 25.216 28.928C25.2587 28.8853 25.3013 28.8853 25.344 28.928C25.3867 28.928 25.4293 28.928 25.472 28.928L26.88 28.544C27.136 28.4587 27.3707 28.3733 27.584 28.288C27.84 28.16 28.096 28.0747 28.352 28.032C28.736 27.9467 29.1413 27.7973 29.568 27.584C29.9947 27.328 30.4213 27.1147 30.848 26.944C30.848 26.9013 31.04 26.7733 31.424 26.56C31.8507 26.3467 32.2987 26.112 32.768 25.856L32.96 25.216C33.0453 25.0027 33.1733 24.896 33.344 24.896C33.5147 24.8533 33.6427 24.768 33.728 24.64C33.6 24.5547 33.4933 24.4907 33.408 24.448C33.3227 24.4053 33.3227 24.2987 33.408 24.128V24.064L33.728 23.04C33.8987 22.528 33.984 22.0373 33.984 21.568C33.984 20.5013 33.5787 19.7333 32.768 19.264C31.9573 18.7947 30.9973 18.56 29.888 18.56C29.7173 18.56 29.5253 18.56 29.312 18.56C29.1413 18.56 28.9493 18.5813 28.736 18.624C28.352 18.6667 27.968 18.7307 27.584 18.816C27.2 18.9013 26.7947 18.9867 26.368 19.072H26.24C26.0693 19.072 25.92 19.1147 25.792 19.2C25.664 19.2427 25.536 19.3067 25.408 19.392C24.8107 19.5627 24.1493 19.7973 23.424 20.096C23.04 20.1813 22.7627 20.3093 22.592 20.48C22.4213 20.5653 22.3147 20.608 22.272 20.608V20.672C22.016 20.7573 21.8027 20.8 21.632 20.8C21.5467 20.8 21.44 20.8 21.312 20.8C21.184 20.7573 21.056 20.736 20.928 20.736C21.0133 20.7787 21.0773 20.8 21.12 20.8C21.1627 20.8 21.2053 20.8213 21.248 20.864C21.2907 20.992 21.248 21.0773 21.12 21.12C21.0347 21.1627 20.9707 21.2267 20.928 21.312H20.864C20.8213 21.3547 20.736 21.3973 20.608 21.44C20.5227 21.4827 20.4373 21.5467 20.352 21.632C19.968 21.6747 19.6267 21.8027 19.328 22.016C19.072 22.2293 18.8373 22.464 18.624 22.72H18.56L17.088 23.744C16.7467 23.9147 16.448 24.128 16.192 24.384C15.6373 24.8107 15.0827 25.2587 14.528 25.728C13.9733 26.1973 13.4187 26.6667 12.864 27.136H12.736C12.5227 27.136 12.3947 27.2 12.352 27.328C12.352 27.4133 12.3093 27.5627 12.224 27.776H12.16C12.032 27.9467 11.8827 28.096 11.712 28.224C11.5413 28.2667 11.4347 28.352 11.392 28.48C11.3493 28.608 11.264 28.736 11.136 28.864L10.688 29.312C10.5173 29.2693 10.3253 29.2053 10.112 29.12C9.94133 28.992 9.74933 28.928 9.536 28.928C9.536 28.928 9.51467 28.9493 9.472 28.992C9.472 28.992 9.472 29.0347 9.472 29.12C9.728 29.1627 9.94133 29.2693 10.112 29.44C10.2827 29.6107 10.2613 29.8027 10.048 30.016L9.92 30.144C9.74933 30.3147 9.536 30.3787 9.28 30.336C9.06667 30.2933 8.87467 30.3787 8.704 30.592C8.78933 30.6347 8.896 30.656 9.024 30.656C9.152 30.656 9.216 30.7627 9.216 30.976C9.00267 31.232 8.78933 31.488 8.576 31.744C8.40533 32 8.21333 32.256 8 32.512C7.82933 32.6827 7.68 32.8747 7.552 33.088C7.424 33.2587 7.25333 33.408 7.04 33.536C6.99733 33.5787 6.976 33.6427 6.976 33.728C7.01867 33.7707 7.01867 33.8133 6.976 33.856V33.92L6.016 35.456C5.80267 35.584 5.632 35.712 5.504 35.84C5.376 35.968 5.312 36.16 5.312 36.416C5.48267 36.2453 5.568 36.1813 5.568 36.224V36.288C5.568 36.3733 5.52533 36.4587 5.44 36.544C5.35467 36.5867 5.29067 36.6507 5.248 36.736L4.928 37.504C4.50133 38.4853 4.20267 39.36 4.032 40.128C3.776 40.9387 3.648 41.7067 3.648 42.432C3.60533 42.6027 3.52 42.7733 3.392 42.944C3.30667 43.072 3.328 43.2213 3.456 43.392C3.54133 43.4773 3.60533 43.5413 3.648 43.584C3.69067 43.584 3.712 43.6693 3.712 43.84C3.712 44.0533 3.73333 44.2027 3.776 44.288V44.48C3.776 44.608 3.73333 44.736 3.648 44.864C3.56267 44.992 3.54133 45.12 3.584 45.248C3.62667 45.2907 3.712 45.312 3.84 45.312C3.968 45.2693 4.05333 45.2907 4.096 45.376L4.48 46.08C4.608 46.1653 4.69333 46.2933 4.736 46.464C4.77867 46.6347 4.82133 46.7627 4.864 46.848C4.94933 46.9333 5.056 47.0187 5.184 47.104C5.312 47.1467 5.39733 47.232 5.44 47.36C5.44 47.4027 5.41867 47.4453 5.376 47.488C5.376 47.488 5.376 47.5307 5.376 47.616C5.58933 47.5307 5.61067 47.36 5.44 47.104C5.696 47.2747 5.696 47.4453 5.44 47.616C5.52533 47.616 5.61067 47.616 5.696 47.616C5.78133 47.5733 5.86667 47.552 5.952 47.552C6.12267 47.552 6.29333 47.616 6.464 47.744C7.14667 48.0853 7.91467 48.32 8.768 48.448C9.664 48.6187 10.624 48.704 11.648 48.704C12.8 48.704 14.0373 48.5973 15.36 48.384C16.6827 48.2133 18.0053 47.9787 19.328 47.68V47.616C19.4133 47.616 19.4773 47.6373 19.52 47.68C19.5627 47.68 19.6053 47.68 19.648 47.68C19.8613 47.68 20.0533 47.5947 20.224 47.424L20.928 47.232C21.2693 47.0187 21.5893 46.848 21.888 46.72C22.1867 46.592 22.5067 46.5707 22.848 46.656C22.9333 46.6987 22.9333 46.7413 22.848 46.784C22.8053 46.784 22.784 46.8267 22.784 46.912C22.8693 46.8693 22.9333 46.8053 22.976 46.72C23.0187 46.6347 23.0827 46.5707 23.168 46.528L23.552 46.4C23.8507 46.3573 24.1067 46.2933 24.32 46.208C24.5333 46.08 24.768 45.9733 25.024 45.888L25.728 45.632C25.8133 45.6747 25.8987 45.696 25.984 45.696C26.1547 45.696 26.2827 45.6533 26.368 45.568C26.4533 45.44 26.5813 45.312 26.752 45.184C26.7947 45.184 26.9013 45.1413 27.072 45.056C27.2853 44.9707 27.52 44.9067 27.776 44.864C28.032 44.7787 28.2453 44.6507 28.416 44.48H28.48C29.12 44.1813 29.7387 43.8827 30.336 43.584C30.9333 43.2853 31.5093 42.9867 32.064 42.688L33.792 41.728C34.0053 41.5573 34.176 41.408 34.304 41.28C34.432 41.152 34.6027 41.088 34.816 41.088L34.88 41.024C35.1787 40.7253 35.4987 40.4907 35.84 40.32C36.1813 40.1067 36.4587 39.8933 36.672 39.68C37.0133 39.3813 37.2693 39.232 37.44 39.232C37.568 39.232 37.632 39.3173 37.632 39.488C37.632 39.7013 37.504 39.936 37.248 40.192C36.864 40.5333 36.4373 40.9173 35.968 41.344C35.4987 41.7707 34.9653 42.2187 34.368 42.688C34.1547 42.8587 33.92 42.9653 33.664 43.008C33.4507 43.0507 33.3013 43.2 33.216 43.456C32.96 43.6267 32.6827 43.7973 32.384 43.968C32.128 44.1387 31.8293 44.3093 31.488 44.48C31.104 44.6933 30.6987 44.9067 30.272 45.12C29.888 45.3333 29.4613 45.5467 28.992 45.76C28.864 45.76 28.7147 45.76 28.544 45.76C28.416 45.7173 28.288 45.696 28.16 45.696C27.8613 45.696 27.648 45.76 27.52 45.888C27.52 45.888 27.52 45.9093 27.52 45.952C27.52 45.952 27.5413 45.9947 27.584 46.08C27.6693 46.08 27.7547 46.08 27.84 46.08C27.9253 46.0373 28.0107 46.0373 28.096 46.08C28.096 46.08 28.096 46.1013 28.096 46.144C28.096 46.1867 28.0533 46.208 27.968 46.208C27.7973 46.2933 27.6693 46.336 27.584 46.336V46.4L27.136 46.592H27.072C26.9013 46.7627 26.7733 46.72 26.688 46.464C26.56 46.5067 26.432 46.592 26.304 46.72C26.2187 46.848 26.112 46.9547 25.984 47.04L25.536 47.232C25.3653 47.2747 25.1947 47.3173 25.024 47.36C24.8533 47.36 24.7253 47.424 24.64 47.552H24.576C24.4053 47.6373 24.192 47.7227 23.936 47.808C23.7227 47.8507 23.5093 47.9147 23.296 48V48.064H22.976C22.7627 48.064 22.528 48.0427 22.272 48C22.016 47.9147 21.76 47.872 21.504 47.872C21.5893 48 21.7387 48.064 21.952 48.064C22.1653 48.1067 22.2293 48.2133 22.144 48.384C22.144 48.4267 22.1227 48.448 22.08 48.448L20.416 48.896V48.96C20.2453 49.0027 20.0533 49.024 19.84 49.024C19.6693 49.0667 19.4987 49.1307 19.328 49.216C17.664 49.6427 16.0213 49.9413 14.4 50.112C12.7787 50.2827 11.264 50.368 9.856 50.368H9.792ZM23.552 31.296C23.5947 31.2533 23.68 31.232 23.808 31.232C23.9787 31.1893 24.1067 31.1467 24.192 31.104L25.6 30.976C25.6427 30.976 25.6853 30.9547 25.728 30.912C25.7707 30.8693 25.8133 30.848 25.856 30.848C25.8987 30.8053 25.9627 30.784 26.048 30.784C26.2613 30.6133 26.368 30.592 26.368 30.72C26.368 30.8053 26.4533 30.784 26.624 30.656C26.6667 30.6133 26.7307 30.592 26.816 30.592C26.9013 30.5067 26.9653 30.464 27.008 30.464C27.0933 30.4213 27.1573 30.3787 27.2 30.336C27.2853 30.2933 27.328 30.272 27.328 30.272C27.328 30.2293 27.3707 30.208 27.456 30.208H27.52C27.6053 30.208 27.7547 30.144 27.968 30.016C28.1813 29.888 28.288 29.824 28.288 29.824C28.3307 29.824 28.3733 29.7813 28.416 29.696C28.5013 29.6107 28.5653 29.568 28.608 29.568C28.6507 29.5253 28.7147 29.504 28.8 29.504C28.8853 29.4613 28.928 29.4187 28.928 29.376C29.0133 29.3333 29.0987 29.2907 29.184 29.248C29.2693 29.2053 29.3333 29.184 29.376 29.184C29.4187 29.1413 29.504 29.0773 29.632 28.992C29.8027 28.9067 29.888 28.8427 29.888 28.8C29.9733 28.7147 30.0587 28.6507 30.144 28.608C30.272 28.5653 30.3573 28.5227 30.4 28.48C30.528 28.4373 30.8267 28.224 31.296 27.84C31.7653 27.4133 32.1707 26.9227 32.512 26.368C32.5973 26.2827 32.4053 26.3893 31.936 26.688C31.5093 26.944 31.2747 27.0933 31.232 27.136C31.1893 27.136 31.104 27.2 30.976 27.328C30.848 27.4133 30.7627 27.456 30.72 27.456L30.592 27.584H30.4L30.336 27.648C30.336 27.648 30.2507 27.6907 30.08 27.776C30.0373 27.776 29.952 27.8187 29.824 27.904C29.696 27.9893 29.6107 28.032 29.568 28.032C29.5253 28.032 29.4827 28.0533 29.44 28.096C29.3973 28.096 29.3547 28.096 29.312 28.096C29.1413 28.224 28.8853 28.352 28.544 28.48C28.2453 28.608 28.032 28.672 27.904 28.672H27.84C27.7547 28.672 27.6693 28.7147 27.584 28.8L27.52 28.864L27.2 28.928C27.1147 28.9707 27.008 29.0133 26.88 29.056C26.752 29.0987 26.6453 29.12 26.56 29.12C26.5173 29.1627 26.496 29.184 26.496 29.184C26.496 29.1413 26.496 29.12 26.496 29.12C26.4107 29.2053 26.304 29.248 26.176 29.248C26.1333 29.248 26.112 29.248 26.112 29.248C26.112 29.2053 26.0907 29.184 26.048 29.184C26.0053 29.184 25.92 29.248 25.792 29.376H25.472C25.472 29.4187 25.4293 29.44 25.344 29.44H25.28C25.2373 29.44 25.1733 29.4613 25.088 29.504C25.0027 29.5467 24.9387 29.568 24.896 29.568C24.8533 29.568 24.832 29.5893 24.832 29.632C24.832 29.632 24.8107 29.632 24.768 29.632C24.768 29.5893 24.7467 29.568 24.704 29.568H24.64L24.256 29.696H24.064C23.936 29.696 23.7867 29.6747 23.616 29.632C23.488 29.5893 23.3387 29.5893 23.168 29.632C23.1253 29.632 23.104 29.6533 23.104 29.696C23.104 29.696 23.0827 29.696 23.04 29.696H22.912C22.912 29.696 22.8907 29.696 22.848 29.696C22.848 29.696 22.8267 29.7173 22.784 29.76C22.784 29.7173 22.7627 29.696 22.72 29.696H22.336C22.336 29.6533 22.3147 29.632 22.272 29.632C22.2293 29.632 22.1867 29.6533 22.144 29.696C22.1013 29.696 22.0587 29.696 22.016 29.696C21.76 29.696 21.568 29.6107 21.44 29.44C21.312 29.2693 21.0773 29.2267 20.736 29.312C20.736 29.2693 20.7147 29.248 20.672 29.248C20.6293 29.2053 20.608 29.1627 20.608 29.12H20.544C20.4587 29.2053 20.416 29.2693 20.416 29.312C20.3733 29.3547 20.3733 29.4187 20.416 29.504C20.5013 29.5467 20.5227 29.6107 20.48 29.696C20.5227 29.7387 20.544 29.8027 20.544 29.888C20.5867 29.9307 20.6293 29.952 20.672 29.952C20.672 30.08 20.736 30.208 20.864 30.336C20.864 30.3787 20.8853 30.4213 20.928 30.464C21.0133 30.5067 21.0347 30.528 20.992 30.528C21.0347 30.5707 21.0773 30.592 21.12 30.592C21.1627 30.592 21.184 30.6347 21.184 30.72L21.376 30.912H21.44C21.824 31.0827 22.208 31.2107 22.592 31.296C23.0187 31.3387 23.3387 31.3387 23.552 31.296ZM36.9495 48.192C36.6935 48.192 36.5655 48.0427 36.5655 47.744C36.5655 47.5307 36.6295 47.2747 36.7575 46.976C37.0988 46.2507 37.4828 45.2267 37.9095 43.904C38.3788 42.5813 38.9548 41.4507 39.6375 40.512C39.8508 40.0427 40.1708 39.4667 40.5975 38.784C41.0668 38.0587 41.5148 37.2053 41.9415 36.224V35.904C41.9415 35.776 41.9415 35.6693 41.9415 35.584C41.9842 35.456 42.0268 35.328 42.0695 35.2C42.2402 34.8587 42.3895 34.624 42.5175 34.496C42.6882 34.368 42.8588 34.1333 43.0295 33.792C43.0295 33.7067 43.0295 33.6213 43.0295 33.536C43.0722 33.4507 43.1148 33.3653 43.1575 33.28C43.0722 33.3653 43.0508 33.3013 43.0935 33.088C43.0082 33.088 43.0935 32.8747 43.3495 32.448C43.5202 32.064 43.6482 31.8507 43.7335 31.808H43.7975C43.9682 31.552 44.1175 31.3387 44.2455 31.168C44.3735 30.9547 44.4162 30.8267 44.3735 30.784V30.656C44.3735 30.3573 44.4588 30.08 44.6295 29.824C44.8428 29.568 45.0348 29.2907 45.2055 28.992C45.3335 28.8213 45.4402 28.736 45.5255 28.736C45.6108 28.736 45.6535 28.7573 45.6535 28.8C45.6962 28.8 45.7388 28.8 45.7815 28.8C45.9095 28.8 45.9735 28.6933 45.9735 28.48C45.9735 28.3947 45.9522 28.288 45.9095 28.16C45.9095 28.032 45.8882 27.8827 45.8455 27.712C45.8882 27.4987 46.0588 27.328 46.3575 27.2L46.5495 27.136C46.7628 26.24 47.0188 25.6427 47.3175 25.344C47.4028 25.2587 47.4882 25.1733 47.5735 25.088C47.6588 25.0027 47.7442 24.9173 47.8295 24.832C48.3415 24.2773 48.7255 23.68 48.9815 23.04C49.0668 22.8693 49.1735 22.7413 49.3015 22.656C49.4722 22.528 49.6215 22.3787 49.7495 22.208C49.8348 22.08 49.8562 21.952 49.8135 21.824C49.8135 21.6533 49.8348 21.504 49.8775 21.376C50.0908 21.0347 50.2402 20.8427 50.3255 20.8C50.4108 20.7573 50.4962 20.7147 50.5815 20.672C50.7095 20.5867 50.9228 20.3947 51.2215 20.096C51.3495 19.8827 51.4775 19.6693 51.6055 19.456C51.7762 19.2427 51.9468 19.0293 52.1175 18.816C52.3735 18.5173 52.6508 18.304 52.9495 18.176C53.2482 18.048 53.5468 17.856 53.8455 17.6C53.9308 17.5147 53.9735 17.3867 53.9735 17.216C53.9735 17.0027 54.0162 16.8533 54.1015 16.768C55.5948 15.5733 57.1948 14.5707 58.9015 13.76C60.6508 12.9493 61.9948 12.544 62.9335 12.544C63.2748 12.544 63.5948 12.5653 63.8935 12.608C64.2348 12.6507 64.5548 12.7147 64.8535 12.8H64.9815C65.1948 12.8 65.4082 12.8427 65.6215 12.928C65.8348 13.0133 66.0268 13.0987 66.1975 13.184C66.3682 13.184 66.5815 13.2267 66.8375 13.312C67.0508 13.3973 67.1788 13.5253 67.2215 13.696C67.2642 13.8667 67.2215 13.9947 67.0935 14.08C67.0508 14.1227 66.9868 14.1227 66.9015 14.08C66.8162 14.0373 66.7308 14.016 66.6455 14.016C66.5602 14.016 66.4748 13.9733 66.3895 13.888C66.3042 13.8027 66.2188 13.7387 66.1335 13.696C65.9628 13.696 65.7708 13.7173 65.5575 13.76C65.3868 13.8027 65.1948 13.824 64.9815 13.824H64.7895C64.4908 13.824 64.2775 13.7813 64.1495 13.696C64.0642 13.568 63.8508 13.5467 63.5095 13.632C63.4668 13.632 63.3388 13.6533 63.1255 13.696C62.9122 13.7387 62.7628 13.76 62.6775 13.76C61.1415 14.144 59.7975 14.784 58.6455 15.68C57.4935 16.5333 56.4695 17.4933 55.5735 18.56C54.7202 19.6267 53.8882 20.6507 53.0775 21.632C52.6935 22.4 52.3095 23.0187 51.9255 23.488C51.8828 23.5307 51.8402 23.5093 51.7975 23.424C51.7548 23.3387 51.7122 23.3387 51.6695 23.424C51.5415 23.552 51.4348 23.7653 51.3495 24.064C51.3068 24.32 51.2215 24.5333 51.0935 24.704C51.0508 24.7467 51.0082 24.7253 50.9655 24.64C50.9228 24.5547 50.8588 24.5547 50.7735 24.64C50.7308 24.6827 50.6668 24.8533 50.5815 25.152C50.5388 25.408 50.4748 25.5787 50.3895 25.664C49.8775 26.3467 49.3228 27.008 48.7255 27.648C48.1282 28.288 47.5308 29.0347 46.9335 29.888C46.0802 31.2107 45.2695 32.512 44.5015 33.792C43.7335 35.072 42.9228 36.48 42.0695 38.016C41.7708 38.528 41.5362 38.9973 41.3655 39.424C41.2375 39.808 41.0882 40.1707 40.9175 40.512C40.8322 40.64 40.7895 40.8107 40.7895 41.024C40.7895 41.3227 40.9602 41.472 41.3015 41.472C41.5575 41.472 41.8135 41.408 42.0695 41.28L42.7095 41.024C43.7335 40.0853 44.8002 39.296 45.9095 38.656C45.9522 38.656 45.9735 38.656 45.9735 38.656C46.0162 38.6133 46.0588 38.592 46.1015 38.592C46.2295 38.592 46.3148 38.6773 46.3575 38.848C46.4002 38.976 46.3575 39.0827 46.2295 39.168C44.9922 39.8507 43.8402 40.7253 42.7735 41.792C42.7308 41.8773 42.6882 41.9627 42.6455 42.048C42.6028 42.1333 42.5388 42.2187 42.4535 42.304C42.3682 42.3893 42.2402 42.5387 42.0695 42.752C41.9415 42.9653 41.8775 43.0933 41.8775 43.136C41.8348 43.264 41.7708 43.3067 41.6855 43.264C41.6428 43.2213 41.5148 43.2853 41.3015 43.456C41.2588 43.4987 41.2162 43.584 41.1735 43.712C41.1735 43.84 41.1522 43.9467 41.1095 44.032C41.0668 44.16 40.9815 44.2667 40.8535 44.352C40.7682 44.3947 40.7255 44.4373 40.7255 44.48C40.6828 44.6507 40.5975 44.7573 40.4695 44.8C40.3842 44.8 40.2988 44.8427 40.2135 44.928C40.1708 44.9707 40.1708 45.0347 40.2135 45.12C40.2562 45.2053 40.2348 45.2907 40.1495 45.376C40.1068 45.504 40.0642 45.568 40.0215 45.568C39.9788 45.5253 39.9148 45.5467 39.8295 45.632C39.6588 45.8027 39.5308 45.888 39.4455 45.888C39.1895 45.9733 39.0828 46.0373 39.1255 46.08C39.2108 46.1227 39.2748 46.1653 39.3175 46.208C39.4028 46.208 39.3388 46.272 39.1255 46.4C39.0402 46.4427 38.9548 46.5707 38.8695 46.784C38.7842 46.9547 38.6988 47.0827 38.6135 47.168C38.4855 47.2533 38.3575 47.3173 38.2295 47.36C38.1442 47.4027 38.0375 47.488 37.9095 47.616C37.5255 48 37.2055 48.192 36.9495 48.192ZM51.468 48.128C50.4013 48.128 49.4627 47.8293 48.652 47.232C47.8413 46.6347 47.436 45.6107 47.436 44.16C47.436 43.6053 47.5 43.0507 47.628 42.496C47.756 41.8987 47.9053 41.3227 48.076 40.768C48.1613 40.2133 48.2893 39.7227 48.46 39.296C48.5027 39.1253 48.524 39.04 48.524 39.04C48.5667 38.9973 48.6733 38.9333 48.844 38.848L49.356 38.08V37.824C49.3133 37.824 49.292 37.824 49.292 37.824C49.292 37.7813 49.292 37.76 49.292 37.76C49.292 37.632 49.3987 37.4827 49.612 37.312C49.8253 37.1413 49.932 37.056 49.932 37.056C49.9747 36.8427 50.0387 36.736 50.124 36.736C50.2093 36.736 50.316 36.672 50.444 36.544H51.148V36.416C51.148 36.2027 51.0413 36.1173 50.828 36.16C50.6573 36.16 50.572 36.1387 50.572 36.096C50.572 36.0533 50.636 35.968 50.764 35.84C50.9347 35.6693 51.0413 35.5627 51.084 35.52C51.212 35.3493 51.3187 35.2 51.404 35.072C51.4893 34.9013 51.6173 34.7733 51.788 34.688C52.556 33.7493 53.0253 33.152 53.196 32.896C53.4093 32.64 53.6227 32.448 53.836 32.32C53.9213 32.32 53.9853 32.3627 54.028 32.448C54.1133 32.4907 54.1133 32.5547 54.028 32.64C54.1133 32.768 54.1773 32.7893 54.22 32.704C54.3053 32.6187 54.348 32.576 54.348 32.576L54.604 32.448C54.5187 32.3627 54.476 32.256 54.476 32.128C54.476 31.9147 54.5187 31.744 54.604 31.616C54.6893 31.4453 54.8387 31.2747 55.052 31.104C55.308 30.9333 55.436 30.8267 55.436 30.784C55.692 30.6987 55.884 30.6133 56.012 30.528C56.1827 30.4427 56.3533 30.4 56.524 30.4C56.8227 30.4 57.1213 30.5067 57.42 30.72C58.2307 31.1467 58.9133 31.5733 59.468 32C60.0227 32.4267 60.3 33.024 60.3 33.792C60.3 34.6027 59.9587 35.3067 59.276 35.904C58.636 36.4587 57.8467 36.928 56.908 37.312C55.9693 37.696 55.0307 38.016 54.092 38.272C53.196 38.4853 52.492 38.656 51.98 38.784C51.6813 38.8267 51.532 38.9547 51.532 39.168C51.5747 39.3387 51.5533 39.5307 51.468 39.744L51.02 40.448L50.636 41.344L50.316 41.92C50.0173 42.176 49.9107 42.368 49.996 42.496C50.0813 42.624 50.2307 42.6027 50.444 42.432C50.4867 42.4747 50.508 42.5387 50.508 42.624C50.508 42.7947 50.4653 43.008 50.38 43.264C50.2947 43.4773 50.2307 43.648 50.188 43.776C50.1453 43.9467 50.1453 44.032 50.188 44.032C50.2733 43.9893 50.316 44.0747 50.316 44.288L50.38 45.184C50.636 45.9947 51.212 46.464 52.108 46.592C52.1933 46.592 52.2787 46.6133 52.364 46.656C52.492 46.656 52.5987 46.656 52.684 46.656C53.452 46.656 53.8573 46.592 53.9 46.464C53.9853 46.336 54.092 46.2507 54.22 46.208C54.604 46.1227 54.924 46.0373 55.18 45.952C55.4787 45.8667 55.7773 45.7387 56.076 45.568C56.588 45.3547 57.0787 45.0773 57.548 44.736C58.0173 44.3947 58.508 44.0533 59.02 43.712L59.66 43.264C59.7027 43.1787 59.7027 43.1147 59.66 43.072C59.6173 43.0293 59.6173 42.9867 59.66 42.944C59.7453 42.9013 59.8093 42.9013 59.852 42.944C59.9373 42.944 60.0013 42.9227 60.044 42.88C60.1293 42.8373 60.2147 42.7733 60.3 42.688C60.3853 42.56 60.4707 42.4533 60.556 42.368C60.6413 42.2827 60.684 42.1973 60.684 42.112C60.7267 42.0267 60.7907 41.9413 60.876 41.856C61.2173 41.5147 61.5587 41.152 61.9 40.768C62.284 40.384 62.604 40.0427 62.86 39.744C63.1587 39.3173 63.3933 39.104 63.564 39.104C63.6493 39.104 63.692 39.1467 63.692 39.232C63.692 39.4453 63.5427 39.7653 63.244 40.192C62.5187 41.2587 61.6867 42.304 60.748 43.328C59.8093 44.3093 58.7853 45.2053 57.676 46.016C56.8653 46.5707 55.9053 47.0613 54.796 47.488C53.6867 47.9147 52.5773 48.128 51.468 48.128ZM52.428 37.824C53.068 37.7813 53.9 37.6107 54.924 37.312C55.948 36.9707 56.8013 36.5227 57.484 35.968C58.2093 35.3707 58.572 34.7093 58.572 33.984C58.572 33.3013 58.2093 32.64 57.484 32C56.8867 32.4267 56.2253 33.0453 55.5 33.856C54.8173 34.624 54.1987 35.392 53.644 36.16C53.0893 36.8853 52.684 37.44 52.428 37.824ZM73.5275 48.192C73.2715 48.192 73.1435 48.0427 73.1435 47.744C73.1435 47.5307 73.2075 47.2747 73.3355 46.976C73.6768 46.2507 74.0608 45.2267 74.4875 43.904C74.9568 42.5813 75.5328 41.4507 76.2155 40.512C76.6848 39.5733 77.1115 38.656 77.4955 37.76C77.9222 36.8213 78.3275 35.8827 78.7115 34.944C78.7115 34.944 78.6688 34.9227 78.5835 34.88C78.4982 34.7947 78.4555 34.7093 78.4555 34.624C78.2422 34.4533 77.9862 34.2187 77.6875 33.92C77.3888 33.5787 77.3675 33.2373 77.6235 32.896C77.7088 32.8107 77.7515 32.768 77.7515 32.768C77.7942 32.768 77.8155 32.768 77.8155 32.768C77.8155 32.7253 77.7942 32.704 77.7515 32.704C77.7515 32.704 77.7515 32.6827 77.7515 32.64L77.6875 32.576C77.6448 32.576 77.6022 32.576 77.5595 32.576C77.5595 32.5333 77.5382 32.512 77.4955 32.512C77.3248 32.512 77.1328 32.5547 76.9195 32.64C76.7062 32.6827 76.4928 32.704 76.2795 32.704C76.0235 32.704 75.6822 32.8107 75.2555 33.024C74.8288 33.1947 74.4448 33.344 74.1035 33.472C73.9328 33.5147 73.8262 33.536 73.7835 33.536C73.7835 33.4933 73.6982 33.5147 73.5275 33.6C73.4848 33.6427 73.4848 33.5787 73.5275 33.408C73.6128 33.1947 73.6555 33.0453 73.6555 32.96C73.6555 32.9173 73.6342 32.896 73.5915 32.896C73.5062 32.896 73.3355 33.024 73.0795 33.28C72.8235 33.4933 72.6528 33.6213 72.5675 33.664C72.5248 33.7067 72.5035 33.7707 72.5035 33.856C72.5462 33.9413 72.5675 34.0267 72.5675 34.112C72.5675 34.24 72.4608 34.3893 72.2475 34.56C72.0342 34.688 71.8848 34.7947 71.7995 34.88C71.6288 35.008 71.4155 35.0933 71.1595 35.136C70.9462 35.136 70.7328 35.2213 70.5195 35.392C70.2635 35.5627 70.1355 35.6907 70.1355 35.776C70.1782 35.8613 70.0502 36.0107 69.7515 36.224C69.3675 36.5227 68.8342 36.9707 68.1515 37.568C67.5115 38.1653 67.0208 38.6987 66.6795 39.168C65.8688 40.1493 65.1222 41.28 64.4395 42.56C63.7995 43.84 63.4795 44.8427 63.4795 45.568C63.4795 46.1227 63.7142 46.4 64.1835 46.4C64.2688 46.4 64.3542 46.4 64.4395 46.4C64.5248 46.3573 64.6315 46.3147 64.7595 46.272L66.4235 45.312L66.8075 45.248V45.184L67.0635 45.376C67.1062 45.3333 67.0848 45.2693 66.9995 45.184C66.9568 45.056 66.9568 44.992 66.9995 44.992C67.0422 44.992 67.0635 45.0133 67.0635 45.056C67.1062 45.056 67.1488 45.056 67.1915 45.056L67.3195 44.864C67.3195 44.864 67.3835 44.8853 67.5115 44.928C67.6822 44.928 67.8102 44.8853 67.8955 44.8C68.0235 44.7573 68.0448 44.6933 67.9595 44.608C67.9168 44.5227 67.8528 44.4587 67.7675 44.416L68.2155 44.032C68.2582 43.9467 68.4288 43.8613 68.7275 43.776C69.4528 43.3067 70.0502 42.752 70.5195 42.112C71.0315 41.4293 71.6075 40.8107 72.2475 40.256H72.3115L73.0795 39.488L73.0155 39.296L73.8475 38.336H73.9755C74.0182 38.2507 74.1035 38.144 74.2315 38.016C74.4022 37.888 74.5088 37.7813 74.5515 37.696C74.6368 37.6533 74.8288 37.44 75.1275 37.056C75.4688 36.6293 75.7888 36.288 76.0875 36.032C76.4288 35.776 76.6208 35.648 76.6635 35.648C76.7062 35.648 76.7275 35.6693 76.7275 35.712C76.7275 35.84 76.6635 36.032 76.5355 36.288C76.4502 36.544 76.3648 36.7147 76.2795 36.8C75.9808 37.2693 75.5968 37.8027 75.1275 38.4C74.6582 38.9547 74.3808 39.296 74.2955 39.424C73.7835 39.9787 73.1648 40.7253 72.4395 41.664C71.7142 42.56 70.9248 43.456 70.0715 44.352C69.2182 45.248 68.3648 46.016 67.5115 46.656C66.7008 47.2533 65.9328 47.552 65.2075 47.552C64.5248 47.552 63.7995 47.3387 63.0315 46.912C62.2635 46.4853 61.8795 45.6747 61.8795 44.48C61.8795 44.096 61.9222 43.6693 62.0075 43.2C62.1355 42.688 62.3275 42.1547 62.5835 41.6C62.5835 41.6 62.6262 41.5573 62.7115 41.472C62.7968 41.344 62.8608 41.3013 62.9035 41.344C62.9888 41.216 63.0102 41.088 62.9675 40.96C62.9675 40.7893 62.9675 40.6827 62.9675 40.64L63.0955 40.512C63.1808 40.0427 63.5008 39.616 64.0555 39.232C64.6102 38.848 64.9088 38.5493 64.9515 38.336C64.9942 38.2933 65.0155 38.2293 65.0155 38.144L65.2715 37.312V37.056H65.5275L65.7195 36.8L65.7835 36.672C65.6982 36.6293 65.7195 36.5653 65.8475 36.48C66.0182 36.352 66.1035 36.288 66.1035 36.288C66.1462 36.2027 66.1888 36.1387 66.2315 36.096C66.3168 36.0533 66.3808 36.0107 66.4235 35.968H66.8715C66.9568 35.84 66.9142 35.776 66.7435 35.776C66.5728 35.776 66.4875 35.776 66.4875 35.776C66.4875 35.7333 66.4875 35.712 66.4875 35.712C66.5302 35.6693 66.5515 35.6267 66.5515 35.584L67.2555 35.008C67.4688 34.8373 67.6822 34.688 67.8955 34.56C68.1088 34.432 68.3008 34.2827 68.4715 34.112C68.5995 34.112 68.6208 34.176 68.5355 34.304C68.5782 34.3893 68.6208 34.3893 68.6635 34.304C68.7488 34.2187 68.7915 34.176 68.7915 34.176L69.1115 34.112V34.048C69.1115 33.9627 69.1328 33.8347 69.1755 33.664C69.2182 33.4933 69.2395 33.3867 69.2395 33.344C70.1355 32.6613 71.0742 32.064 72.0555 31.552C73.0368 30.9973 73.9968 30.72 74.9355 30.72C76.0448 30.72 77.0475 31.1467 77.9435 32L78.2635 32.192C78.3062 32.192 78.3275 32.1707 78.3275 32.128C78.4128 31.5307 78.9035 31.0827 79.7995 30.784C80.7382 30.4853 81.5702 30.336 82.2955 30.336C83.0635 30.336 83.4475 30.4427 83.4475 30.656C83.4475 30.7413 83.3195 30.8907 83.0635 31.104C82.9355 31.1893 82.7222 31.3813 82.4235 31.68C82.1248 31.9787 81.8262 32.3413 81.5275 32.768C81.4848 32.896 81.4208 33.024 81.3355 33.152C81.2502 33.28 81.1648 33.408 81.0795 33.536C81.0368 33.6213 80.9728 33.728 80.8875 33.856C80.8448 33.9413 80.7808 34.0267 80.6955 34.112C79.9702 35.3493 79.3942 36.3947 78.9675 37.248C78.5408 38.1013 78.0288 39.1893 77.4315 40.512C77.3462 40.768 77.3035 40.9173 77.3035 40.96C77.3035 41.3013 77.4955 41.472 77.8795 41.472C78.1355 41.472 78.3915 41.408 78.6475 41.28L79.2875 41.024C80.3115 40.0853 81.3782 39.296 82.4875 38.656C82.5302 38.656 82.5515 38.656 82.5515 38.656C82.5942 38.6133 82.6368 38.592 82.6795 38.592C82.8075 38.592 82.8928 38.6773 82.9355 38.848C82.9782 38.976 82.9355 39.0827 82.8075 39.168C81.5702 39.8507 80.4182 40.7253 79.3515 41.792C79.3088 41.8773 79.2662 41.9627 79.2235 42.048C79.1808 42.1333 79.1168 42.2187 79.0315 42.304C78.9035 42.3893 78.7755 42.5387 78.6475 42.752C78.5195 42.9653 78.4555 43.0933 78.4555 43.136C78.4128 43.264 78.3488 43.3067 78.2635 43.264C78.2208 43.2213 78.0928 43.2853 77.8795 43.456C77.8368 43.4987 77.7942 43.584 77.7515 43.712C77.7515 43.84 77.7302 43.9467 77.6875 44.032C77.6022 44.16 77.5168 44.2667 77.4315 44.352C77.3462 44.3947 77.3035 44.4373 77.3035 44.48C77.2608 44.6507 77.1755 44.7573 77.0475 44.8C76.9622 44.8 76.8768 44.8427 76.7915 44.928C76.7488 44.928 76.7275 44.9493 76.7275 44.992C76.7275 45.376 76.6848 45.5467 76.5995 45.504C76.5142 45.4613 76.4288 45.504 76.3435 45.632C76.2582 45.8027 76.1515 45.888 76.0235 45.888C75.7675 45.9733 75.6608 46.0373 75.7035 46.08C75.7888 46.1227 75.8528 46.1653 75.8955 46.208C75.9808 46.208 75.9168 46.272 75.7035 46.4C75.6182 46.4427 75.5328 46.5707 75.4475 46.784C75.3622 46.9547 75.2768 47.0827 75.1915 47.168C75.0635 47.2533 74.9355 47.3173 74.8075 47.36C74.6795 47.4027 74.5728 47.488 74.4875 47.616C74.1035 48 73.7835 48.192 73.5275 48.192ZM82.1965 48.192C81.9405 48.192 81.8125 48.0427 81.8125 47.744C81.8125 47.5307 81.8765 47.2747 82.0045 46.976C82.3458 46.2507 82.7512 45.2267 83.2205 43.904C83.6898 42.5813 84.2658 41.4507 84.9485 40.512L87.4445 34.944C87.4445 34.944 87.4018 34.9227 87.3165 34.88C87.2312 34.7947 87.1885 34.7093 87.1885 34.624C86.9325 34.4533 86.6552 34.2187 86.3565 33.92C86.1005 33.5787 86.0792 33.2373 86.2925 32.896C86.3778 32.8107 86.4418 32.768 86.4845 32.768C86.5272 32.768 86.5485 32.768 86.5485 32.768V32.64C86.5485 32.4693 86.6125 32.3627 86.7405 32.32C86.9112 32.2773 87.0178 32.2133 87.0605 32.128C87.1458 31.5307 87.6365 31.0827 88.5325 30.784C89.4712 30.4853 90.3032 30.336 91.0285 30.336C91.7538 30.336 92.1165 30.4427 92.1165 30.656C92.1165 30.784 91.9885 30.9333 91.7325 31.104C91.6472 31.1893 91.4338 31.3813 91.0925 31.68C90.7938 31.9787 90.5165 32.3413 90.2605 32.768L89.8125 33.536L89.3645 34.112C88.6818 35.3493 88.1272 36.3947 87.7005 37.248C87.2738 38.1013 86.7618 39.1893 86.1645 40.512C86.0365 40.768 85.9725 40.9813 85.9725 41.152C85.9725 41.3653 86.0578 41.472 86.2285 41.472C86.3138 41.472 86.3992 41.4507 86.4845 41.408C86.6125 41.3227 86.7405 41.2587 86.8685 41.216C87.2098 41.0027 87.4872 40.8107 87.7005 40.64C87.9565 40.4267 88.2338 40.2133 88.5325 40C88.6605 39.872 88.7672 39.872 88.8525 40C88.9378 40.0853 88.9378 40.2133 88.8525 40.384C88.6818 40.7253 88.5538 40.9387 88.4685 41.024C88.4258 41.0667 88.3618 41.1093 88.2765 41.152C88.1912 41.1947 87.9992 41.3867 87.7005 41.728L87.4445 42.24C87.3592 42.3253 87.2525 42.496 87.1245 42.752C87.0392 42.9653 86.9965 43.0933 86.9965 43.136C86.9965 43.2213 86.9538 43.264 86.8685 43.264C86.7832 43.2213 86.6552 43.2853 86.4845 43.456C86.4418 43.4987 86.4205 43.584 86.4205 43.712C86.4632 43.84 86.4418 43.9467 86.3565 44.032C86.3138 44.16 86.2498 44.2667 86.1645 44.352C86.0792 44.3947 86.0365 44.4373 86.0365 44.48C85.9938 44.6507 85.9085 44.7573 85.7805 44.8C85.6952 44.8 85.6098 44.8427 85.5245 44.928C85.4818 44.928 85.4605 44.9707 85.4605 45.056C85.4605 45.3973 85.4178 45.5467 85.3325 45.504C85.2472 45.4613 85.1618 45.504 85.0765 45.632C84.9912 45.8027 84.8845 45.888 84.7565 45.888C84.5005 45.9733 84.3938 46.0373 84.4365 46.08C84.4792 46.1227 84.5432 46.1653 84.6285 46.208C84.7138 46.208 84.6498 46.272 84.4365 46.4C84.3085 46.4427 84.2018 46.5707 84.1165 46.784C84.0312 46.9547 83.9458 47.0827 83.8605 47.168C83.7752 47.2533 83.6685 47.3173 83.5405 47.36C83.4125 47.4027 83.3058 47.488 83.2205 47.616C82.8365 48 82.4952 48.192 82.1965 48.192ZM101.269 47.68C101.098 47.68 100.949 47.68 100.821 47.68C100.693 47.6373 100.565 47.5947 100.437 47.552C100.01 47.4667 99.6258 47.3387 99.2845 47.168C98.9858 46.9973 98.7298 46.6773 98.5165 46.208C98.4738 45.9947 98.3672 45.7173 98.1965 45.376C98.0685 45.0347 97.9832 44.7147 97.9405 44.416C97.8978 44.2027 97.8765 43.9467 97.8765 43.648C97.8338 43.4347 97.8125 43.1573 97.8125 42.816C97.7272 42.3893 97.6845 42.0053 97.6845 41.664C97.7272 41.3227 97.7485 40.9173 97.7485 40.448C97.7485 39.9787 97.7698 39.6373 97.8125 39.424C97.8978 39.04 97.9405 38.848 97.9405 38.848C97.9405 38.8053 97.9405 38.592 97.9405 38.208C97.9832 37.696 98.0045 37.1627 98.0045 36.608C98.0045 36.0533 98.0258 35.6053 98.0685 35.264C98.1965 33.984 97.9405 33.344 97.3005 33.344C97.0445 33.344 96.7032 33.4507 96.2765 33.664C96.2338 33.792 96.1485 33.8773 96.0205 33.92C95.9352 33.92 95.8072 33.9627 95.6365 34.048L95.3165 34.24C95.3165 34.2827 95.2738 34.304 95.1885 34.304C95.1032 34.2613 95.0605 34.2827 95.0605 34.368C95.1032 34.5387 95.0818 34.6453 94.9965 34.688C94.9538 34.7307 94.8898 34.7093 94.8045 34.624L94.1005 35.136C94.1005 35.1787 94.0365 35.264 93.9085 35.392L93.8445 35.456C93.6738 35.6267 93.5245 35.712 93.3965 35.712L93.2045 35.904C93.2045 35.9467 93.1618 36.032 93.0765 36.16C93.0338 36.2453 92.9272 36.2667 92.7565 36.224L92.4365 36.544C92.2658 36.8 92.1165 36.9493 91.9885 36.992C91.9032 37.0347 91.7965 37.0773 91.6685 37.12L91.1565 37.76L90.9005 37.824C90.9005 37.9947 90.7085 38.2507 90.3245 38.592C89.9832 38.9333 89.7485 39.168 89.6205 39.296C89.4925 39.424 89.3645 39.488 89.2365 39.488C89.1512 39.488 89.1085 39.4453 89.1085 39.36C89.1085 39.3173 89.2152 39.1467 89.4285 38.848C89.5992 38.6773 89.8552 38.3573 90.1965 37.888C90.5805 37.4187 90.7938 37.2053 90.8365 37.248C91.0498 37.0347 91.1992 36.8213 91.2845 36.608C91.3698 36.352 91.5192 36.1387 91.7325 35.968C91.7325 36.0107 91.7325 36.0533 91.7325 36.096C91.7752 36.096 91.7965 36.096 91.7965 36.096C91.8818 36.096 91.9885 35.9893 92.1165 35.776C92.2445 35.52 92.3298 35.4133 92.3725 35.456L93.4605 34.496C93.4605 34.4533 93.5672 34.368 93.7805 34.24C93.9512 34.1547 94.0578 34.112 94.1005 34.112C94.1432 34.112 94.2498 33.984 94.4205 33.728L94.8685 33.408C94.9112 33.3227 94.9538 33.344 94.9965 33.472C95.0818 33.5573 95.1458 33.5787 95.1885 33.536L95.3805 33.088C95.4658 32.96 95.5938 32.8533 95.7645 32.768C95.9778 32.64 96.1912 32.512 96.4045 32.384C96.9165 31.872 97.3005 31.616 97.5565 31.616H97.8125C98.3672 31.4027 98.8792 31.296 99.3485 31.296C100.031 31.296 100.565 31.552 100.949 32.064C101.034 32.192 101.119 32.4267 101.205 32.768C101.29 32.8107 101.311 32.8747 101.269 32.96C101.269 33.0027 101.29 33.0667 101.333 33.152C101.375 33.2373 101.461 33.344 101.589 33.472C101.717 33.5573 101.781 33.664 101.781 33.792V33.92C101.781 34.0907 101.674 34.24 101.461 34.368C101.674 34.5387 101.759 34.6453 101.717 34.688C101.717 34.688 101.695 34.752 101.653 34.88L101.525 35.776C101.482 36.0747 101.418 36.3093 101.333 36.48C101.247 36.608 101.162 36.8427 101.077 37.184C101.247 37.44 101.247 37.6107 101.077 37.696H100.949L100.885 37.952C100.885 38.0373 100.927 38.1227 101.013 38.208L100.821 38.592C100.863 38.5493 100.885 38.5493 100.885 38.592C100.927 38.592 100.949 38.592 100.949 38.592C100.906 38.6773 100.842 38.848 100.757 39.104C100.671 39.3173 100.607 39.488 100.565 39.616C100.522 39.8293 100.437 39.936 100.309 39.936C100.181 39.936 100.138 40.0427 100.181 40.256C100.223 40.2987 100.245 40.448 100.245 40.704C100.287 40.9173 100.266 41.024 100.181 41.024L100.053 41.792V41.984C100.053 42.1973 100.01 42.4107 99.9245 42.624C99.8818 42.8373 99.8392 43.0507 99.7965 43.264C99.7538 43.4773 99.7112 43.712 99.6685 43.968C99.6685 44.1813 99.6685 44.3947 99.6685 44.608C99.6685 44.7787 99.6685 44.9707 99.6685 45.184C99.7112 45.3547 99.7538 45.5253 99.7965 45.696C99.7965 45.7387 99.8605 45.8667 99.9885 46.08C100.117 46.2933 100.181 46.4213 100.181 46.464L100.373 46.656C100.458 46.6987 100.586 46.6987 100.757 46.656C100.97 46.6133 101.119 46.6347 101.205 46.72C101.589 46.7627 102.079 46.5707 102.677 46.144C103.317 45.6747 103.893 45.1627 104.405 44.608C104.533 44.48 104.661 44.416 104.789 44.416C104.874 44.416 104.938 44.48 104.981 44.608C105.023 44.736 104.981 44.9067 104.853 45.12C104.17 46.1013 103.53 46.784 102.933 47.168C102.335 47.5093 101.781 47.68 101.269 47.68ZM133.183 52.736C132.671 52.736 132.137 52.672 131.583 52.544C131.071 52.4587 130.537 52.288 129.983 52.032C129.684 51.6053 129.279 51.392 128.767 51.392C128.468 51.0507 128.148 50.816 127.807 50.688C127.551 50.5173 127.273 50.2613 126.975 49.92C126.719 49.5787 126.484 49.3867 126.271 49.344C125.801 48.7893 125.353 48.2133 124.927 47.616C124.5 47.0187 124.116 46.4 123.775 45.76V45.632C123.775 45.3333 123.668 45.0987 123.455 44.928C123.284 44.7573 123.113 44.544 122.943 44.288C122.772 43.9893 122.729 43.6907 122.815 43.392C122.9 43.0507 122.772 42.752 122.431 42.496C122.303 42.112 122.217 41.6853 122.174 41.216C122.174 40.7467 122.068 40.3627 121.855 40.064C121.769 39.8933 121.727 39.7867 121.727 39.744C121.727 39.5733 121.769 39.424 121.855 39.296C121.94 39.168 122.004 39.0187 122.047 38.848C121.833 38.8053 121.727 38.6347 121.727 38.336V38.144C121.727 37.6747 121.919 37.312 122.303 37.056C122.687 36.8 123.092 36.672 123.519 36.672C124.201 36.672 124.607 36.928 124.735 37.44L124.927 38.144C124.756 38.3573 124.671 38.528 124.671 38.656C124.671 38.784 124.82 38.9973 125.119 39.296C125.161 39.4667 125.183 39.7013 125.183 40C126.121 41.4507 127.38 42.752 128.959 43.904L129.023 44.032C129.193 44.16 129.343 44.2667 129.47 44.352C129.599 44.3947 129.748 44.4587 129.919 44.544C130.388 44.8427 130.644 45.0773 130.687 45.248C130.772 45.4187 131.135 45.504 131.775 45.504C131.903 45.504 131.988 45.6107 132.031 45.824C132.116 46.0373 132.223 46.1867 132.351 46.272C132.479 46.3147 132.628 46.3147 132.799 46.272C132.969 46.1867 133.119 46.1867 133.247 46.272C133.332 46.3147 133.396 46.3787 133.439 46.464C133.524 46.5067 133.588 46.5493 133.631 46.592C133.716 46.6347 134.1 46.784 134.783 47.04C135.465 47.2533 136.148 47.488 136.831 47.744C137.556 47.9573 138.004 48.0853 138.175 48.128C138.516 47.744 138.879 47.424 139.263 47.168C139.647 46.8693 139.988 46.5067 140.287 46.08C140.585 45.9947 140.756 45.8667 140.799 45.696C140.841 45.4827 140.884 45.248 140.927 44.992C141.14 44.6933 141.332 44.352 141.503 43.968C141.673 43.584 141.865 43.264 142.079 43.008C142.548 42.4533 142.825 41.856 142.911 41.216C143.039 40.576 143.273 40.0427 143.615 39.616C143.7 39.5307 143.828 39.4453 143.999 39.36C144.212 39.2747 144.319 39.1893 144.319 39.104V39.04C144.319 38.6133 144.404 38.1867 144.575 37.76C144.788 37.2907 144.98 36.8427 145.151 36.416C145.321 36.2453 145.428 36.0533 145.471 35.84C145.556 35.584 145.663 35.3707 145.791 35.2C145.961 35.0293 146.089 34.88 146.175 34.752C146.303 34.624 146.345 34.432 146.303 34.176L146.431 33.28C146.431 33.0667 146.473 32.8107 146.559 32.512C146.687 32.1707 146.772 31.8933 146.815 31.68C146.9 31.2533 147.028 30.7413 147.199 30.144C147.369 29.504 147.54 29.0133 147.711 28.672C148.009 28.1173 148.223 27.5413 148.351 26.944C148.479 26.304 148.628 25.7067 148.799 25.152C149.097 24.9813 149.247 24.704 149.247 24.32C149.332 24.1493 149.439 23.744 149.567 23.104C149.695 22.464 149.759 22.0587 149.759 21.888C149.631 21.888 149.481 21.8453 149.311 21.76C149.183 21.3333 149.225 20.8427 149.439 20.288C149.652 19.6907 149.929 19.1147 150.271 18.56C150.612 18.0053 150.868 17.5573 151.039 17.216C151.337 16.7467 151.7 16.3413 152.127 16C152.553 15.616 153.065 15.424 153.663 15.424C153.876 15.424 154.111 15.4453 154.367 15.488C154.623 15.488 154.815 15.5733 154.943 15.744C155.497 15.9573 155.775 16.2773 155.775 16.704C155.775 17.0027 155.668 17.3653 155.455 17.792C155.241 18.176 155.092 18.56 155.007 18.944C154.495 19.1573 154.196 19.6907 154.111 20.544C154.068 21.3547 153.983 21.9947 153.854 22.464C153.812 22.6773 153.727 22.848 153.599 22.976C153.471 23.104 153.513 23.296 153.727 23.552V23.936L153.535 24.064L153.791 24.512C153.791 24.64 153.791 24.9173 153.791 25.344C153.833 25.728 153.876 26.112 153.919 26.496C153.961 26.8373 153.961 27.0293 153.919 27.072C153.876 27.1573 153.791 27.2 153.663 27.2C153.407 27.2 153.236 27.0933 153.151 26.88C153.023 26.5387 152.958 26.1547 152.958 25.728C153.001 25.3013 152.895 24.9173 152.639 24.576C152.596 24.448 152.575 24.32 152.575 24.192C152.575 24.064 152.575 23.9787 152.575 23.936C152.575 23.7653 152.575 23.6373 152.575 23.552C152.617 23.4667 152.639 23.4027 152.639 23.36C152.639 23.2747 152.468 22.976 152.127 22.464V21.824C151.657 22.4213 151.316 23.0187 151.103 23.616C150.889 23.7867 150.761 24 150.719 24.256C150.676 24.512 150.612 24.7467 150.527 24.96C150.1 26.0693 149.673 27.1787 149.247 28.288C148.863 29.3973 148.479 30.5067 148.095 31.616C147.796 31.7867 147.647 32.0213 147.647 32.32C147.647 32.576 147.604 32.832 147.519 33.088L146.303 36.416C146.004 36.5013 145.855 36.6507 145.855 36.864C145.897 37.0347 145.919 37.2267 145.919 37.44C145.919 37.7387 145.833 38.016 145.663 38.272C145.535 38.4853 145.428 38.72 145.343 38.976C144.745 40.64 144.02 42.3253 143.167 44.032C142.356 45.7387 141.396 47.296 140.287 48.704C140.884 48.832 141.46 48.9387 142.015 49.024C142.569 49.152 143.124 49.2587 143.679 49.344C144.233 49.4293 144.916 49.5147 145.727 49.6C146.58 49.6853 147.22 49.7707 147.647 49.856C148.116 49.9413 148.628 50.0053 149.183 50.048C149.737 50.0907 150.249 50.112 150.719 50.112H151.167C151.337 50.112 151.465 50.112 151.551 50.112C151.679 50.1547 151.849 50.2187 152.062 50.304C152.148 50.3467 152.233 50.3253 152.319 50.24C152.404 50.1973 152.489 50.176 152.575 50.176C152.788 50.1333 153.001 50.112 153.215 50.112C153.428 50.1547 153.62 50.176 153.791 50.176C153.876 50.1333 153.983 50.112 154.111 50.112C154.281 50.112 154.431 50.1333 154.559 50.176C154.729 50.2613 154.879 50.304 155.007 50.304C155.22 50.304 155.391 50.2613 155.519 50.176C155.647 50.1333 155.796 50.112 155.967 50.112C156.18 50.2827 156.372 50.368 156.543 50.368C156.713 50.368 156.884 50.2613 157.055 50.048C157.524 50.0053 158.079 49.92 158.719 49.792C159.401 49.664 159.679 49.2373 159.551 48.512C159.508 48.1707 159.444 47.9573 159.359 47.872C159.273 47.7867 159.124 47.6373 158.911 47.424C158.74 47.296 158.591 47.1253 158.463 46.912C158.335 46.6987 158.164 46.5707 157.951 46.528C157.865 46.4427 157.823 46.3147 157.823 46.144C157.823 45.888 157.972 45.76 158.271 45.76C158.441 45.76 158.612 45.8453 158.783 46.016C158.953 46.1013 159.06 46.2293 159.103 46.4C159.188 46.5707 159.316 46.72 159.487 46.848C159.572 47.0187 159.721 47.1467 159.935 47.232C160.148 47.3173 160.34 47.4453 160.511 47.616C160.98 48.2987 161.215 48.9173 161.215 49.472C161.215 50.2827 160.852 50.9653 160.127 51.52C159.401 52.0747 158.548 52.3733 157.567 52.416C157.481 52.3307 157.353 52.288 157.183 52.288C157.012 52.288 156.863 52.3093 156.735 52.352C156.649 52.3947 156.521 52.416 156.351 52.416C155.54 52.3733 154.708 52.288 153.854 52.16C153.001 52.032 152.169 51.9253 151.359 51.84C151.273 51.84 151.188 51.8187 151.103 51.776C151.017 51.776 150.932 51.776 150.847 51.776C150.548 51.5627 150.164 51.456 149.695 51.456C149.268 51.456 148.884 51.4133 148.543 51.328C148.415 51.2853 148.116 51.2213 147.647 51.136C147.22 51.0507 146.793 50.9653 146.367 50.88C145.983 50.7947 145.748 50.7733 145.663 50.816C145.193 50.7307 144.703 50.6027 144.191 50.432C143.721 50.304 143.252 50.2187 142.783 50.176C142.271 50.0907 141.737 49.9627 141.183 49.792C140.671 49.664 140.159 49.536 139.647 49.408C138.708 50.432 137.705 51.2427 136.639 51.84C135.572 52.4373 134.42 52.736 133.183 52.736ZM132.735 51.648C133.801 51.648 134.697 51.3707 135.423 50.816C136.191 50.2613 136.916 49.6 137.599 48.832C137.172 48.7467 136.745 48.64 136.319 48.512C135.892 48.384 135.465 48.2347 135.039 48.064C134.655 47.8933 134.313 47.7653 134.015 47.68C133.759 47.552 133.417 47.4453 132.991 47.36C132.82 47.3173 132.628 47.2533 132.415 47.168C132.201 47.0827 131.988 47.0187 131.775 46.976C131.476 46.848 131.199 46.6773 130.943 46.464C130.687 46.208 130.388 46.1227 130.047 46.208C129.833 46.1227 129.599 46.0373 129.343 45.952C129.129 45.8667 128.916 45.76 128.703 45.632C128.489 45.4613 128.34 45.312 128.255 45.184C128.169 45.0133 127.956 44.9707 127.615 45.056L127.103 44.8C126.932 44.6293 126.783 44.4587 126.655 44.288C126.569 44.1173 126.377 44.032 126.079 44.032C125.737 44.032 125.353 43.84 124.927 43.456C124.5 43.0293 124.18 42.6667 123.967 42.368C124.18 42.9227 124.393 43.456 124.607 43.968C124.82 44.48 125.033 44.992 125.247 45.504C125.332 45.8027 125.439 46.0587 125.567 46.272C125.737 46.4427 125.78 46.6773 125.695 46.976C125.695 47.0613 125.801 47.168 126.015 47.296C126.228 47.3813 126.42 47.552 126.591 47.808C126.676 48.1493 126.783 48.3413 126.911 48.384C127.039 48.4267 127.167 48.5547 127.295 48.768C127.636 49.152 127.828 49.4507 127.871 49.664C127.913 49.8773 128.297 50.0267 129.023 50.112L129.599 50.496C129.769 50.7947 129.961 50.944 130.175 50.944C130.388 50.9867 130.623 51.0507 130.879 51.136C131.22 51.2213 131.519 51.328 131.775 51.456C132.073 51.584 132.393 51.648 132.735 51.648ZM173.715 48.192C173.459 48.192 173.331 48.0427 173.331 47.744C173.331 47.5307 173.395 47.2747 173.523 46.976C173.864 46.2507 174.248 45.2267 174.675 43.904C175.144 42.5813 175.72 41.4507 176.403 40.512C176.872 39.5733 177.299 38.656 177.683 37.76C178.11 36.8213 178.515 35.8827 178.899 34.944C178.899 34.944 178.856 34.9227 178.771 34.88C178.686 34.7947 178.643 34.7093 178.643 34.624C178.43 34.4533 178.174 34.2187 177.875 33.92C177.576 33.5787 177.555 33.2373 177.811 32.896C177.896 32.8107 177.939 32.768 177.939 32.768C177.982 32.768 178.003 32.768 178.003 32.768C178.003 32.7253 177.982 32.704 177.939 32.704C177.939 32.704 177.939 32.6827 177.939 32.64L177.875 32.576C177.832 32.576 177.79 32.576 177.747 32.576C177.747 32.5333 177.726 32.512 177.683 32.512C177.512 32.512 177.32 32.5547 177.107 32.64C176.894 32.6827 176.68 32.704 176.467 32.704C176.211 32.704 175.87 32.8107 175.443 33.024C175.016 33.1947 174.632 33.344 174.291 33.472C174.12 33.5147 174.014 33.536 173.971 33.536C173.971 33.4933 173.886 33.5147 173.715 33.6C173.672 33.6427 173.672 33.5787 173.715 33.408C173.8 33.1947 173.843 33.0453 173.843 32.96C173.843 32.9173 173.822 32.896 173.779 32.896C173.694 32.896 173.523 33.024 173.267 33.28C173.011 33.4933 172.84 33.6213 172.755 33.664C172.712 33.7067 172.691 33.7707 172.691 33.856C172.734 33.9413 172.755 34.0267 172.755 34.112C172.755 34.24 172.648 34.3893 172.435 34.56C172.222 34.688 172.072 34.7947 171.987 34.88C171.816 35.008 171.603 35.0933 171.347 35.136C171.134 35.136 170.92 35.2213 170.707 35.392C170.451 35.5627 170.323 35.6907 170.323 35.776C170.366 35.8613 170.238 36.0107 169.939 36.224C169.555 36.5227 169.022 36.9707 168.339 37.568C167.699 38.1653 167.208 38.6987 166.867 39.168C166.056 40.1493 165.31 41.28 164.627 42.56C163.987 43.84 163.667 44.8427 163.667 45.568C163.667 46.1227 163.902 46.4 164.371 46.4C164.456 46.4 164.542 46.4 164.627 46.4C164.712 46.3573 164.819 46.3147 164.947 46.272L166.611 45.312L166.995 45.248V45.184L167.251 45.376C167.294 45.3333 167.272 45.2693 167.187 45.184C167.144 45.056 167.144 44.992 167.187 44.992C167.23 44.992 167.251 45.0133 167.251 45.056C167.294 45.056 167.336 45.056 167.379 45.056L167.507 44.864C167.507 44.864 167.571 44.8853 167.699 44.928C167.87 44.928 167.998 44.8853 168.083 44.8C168.211 44.7573 168.232 44.6933 168.147 44.608C168.104 44.5227 168.04 44.4587 167.955 44.416L168.403 44.032C168.446 43.9467 168.616 43.8613 168.915 43.776C169.64 43.3067 170.238 42.752 170.707 42.112C171.219 41.4293 171.795 40.8107 172.435 40.256H172.499L173.267 39.488L173.203 39.296L174.035 38.336H174.163C174.206 38.2507 174.291 38.144 174.419 38.016C174.59 37.888 174.696 37.7813 174.739 37.696C174.824 37.6533 175.016 37.44 175.315 37.056C175.656 36.6293 175.976 36.288 176.275 36.032C176.616 35.776 176.808 35.648 176.851 35.648C176.894 35.648 176.915 35.6693 176.915 35.712C176.915 35.84 176.851 36.032 176.723 36.288C176.638 36.544 176.552 36.7147 176.467 36.8C176.168 37.2693 175.784 37.8027 175.315 38.4C174.846 38.9547 174.568 39.296 174.483 39.424C173.971 39.9787 173.352 40.7253 172.627 41.664C171.902 42.56 171.112 43.456 170.259 44.352C169.406 45.248 168.552 46.016 167.699 46.656C166.888 47.2533 166.12 47.552 165.395 47.552C164.712 47.552 163.987 47.3387 163.219 46.912C162.451 46.4853 162.067 45.6747 162.067 44.48C162.067 44.096 162.11 43.6693 162.195 43.2C162.323 42.688 162.515 42.1547 162.771 41.6C162.771 41.6 162.814 41.5573 162.899 41.472C162.984 41.344 163.048 41.3013 163.091 41.344C163.176 41.216 163.198 41.088 163.155 40.96C163.155 40.7893 163.155 40.6827 163.155 40.64L163.283 40.512C163.368 40.0427 163.688 39.616 164.243 39.232C164.798 38.848 165.096 38.5493 165.139 38.336C165.182 38.2933 165.203 38.2293 165.203 38.144L165.459 37.312V37.056H165.715L165.907 36.8L165.971 36.672C165.886 36.6293 165.907 36.5653 166.035 36.48C166.206 36.352 166.291 36.288 166.291 36.288C166.334 36.2027 166.376 36.1387 166.419 36.096C166.504 36.0533 166.568 36.0107 166.611 35.968H167.059C167.144 35.84 167.102 35.776 166.931 35.776C166.76 35.776 166.675 35.776 166.675 35.776C166.675 35.7333 166.675 35.712 166.675 35.712C166.718 35.6693 166.739 35.6267 166.739 35.584L167.443 35.008C167.656 34.8373 167.87 34.688 168.083 34.56C168.296 34.432 168.488 34.2827 168.659 34.112C168.787 34.112 168.808 34.176 168.723 34.304C168.766 34.3893 168.808 34.3893 168.851 34.304C168.936 34.2187 168.979 34.176 168.979 34.176L169.299 34.112V34.048C169.299 33.9627 169.32 33.8347 169.363 33.664C169.406 33.4933 169.427 33.3867 169.427 33.344C170.323 32.6613 171.262 32.064 172.243 31.552C173.224 30.9973 174.184 30.72 175.123 30.72C176.232 30.72 177.235 31.1467 178.131 32L178.451 32.192C178.494 32.192 178.515 32.1707 178.515 32.128C178.6 31.5307 179.091 31.0827 179.987 30.784C180.926 30.4853 181.758 30.336 182.483 30.336C183.251 30.336 183.635 30.4427 183.635 30.656C183.635 30.7413 183.507 30.8907 183.251 31.104C183.123 31.1893 182.91 31.3813 182.611 31.68C182.312 31.9787 182.014 32.3413 181.715 32.768C181.672 32.896 181.608 33.024 181.523 33.152C181.438 33.28 181.352 33.408 181.267 33.536C181.224 33.6213 181.16 33.728 181.075 33.856C181.032 33.9413 180.968 34.0267 180.883 34.112C180.158 35.3493 179.582 36.3947 179.155 37.248C178.728 38.1013 178.216 39.1893 177.619 40.512C177.534 40.768 177.491 40.9173 177.491 40.96C177.491 41.3013 177.683 41.472 178.067 41.472C178.323 41.472 178.579 41.408 178.835 41.28L179.475 41.024C180.499 40.0853 181.566 39.296 182.675 38.656C182.718 38.656 182.739 38.656 182.739 38.656C182.782 38.6133 182.824 38.592 182.867 38.592C182.995 38.592 183.08 38.6773 183.123 38.848C183.166 38.976 183.123 39.0827 182.995 39.168C181.758 39.8507 180.606 40.7253 179.539 41.792C179.496 41.8773 179.454 41.9627 179.411 42.048C179.368 42.1333 179.304 42.2187 179.219 42.304C179.091 42.3893 178.963 42.5387 178.835 42.752C178.707 42.9653 178.643 43.0933 178.643 43.136C178.6 43.264 178.536 43.3067 178.451 43.264C178.408 43.2213 178.28 43.2853 178.067 43.456C178.024 43.4987 177.982 43.584 177.939 43.712C177.939 43.84 177.918 43.9467 177.875 44.032C177.79 44.16 177.704 44.2667 177.619 44.352C177.534 44.3947 177.491 44.4373 177.491 44.48C177.448 44.6507 177.363 44.7573 177.235 44.8C177.15 44.8 177.064 44.8427 176.979 44.928C176.936 44.928 176.915 44.9493 176.915 44.992C176.915 45.376 176.872 45.5467 176.787 45.504C176.702 45.4613 176.616 45.504 176.531 45.632C176.446 45.8027 176.339 45.888 176.211 45.888C175.955 45.9733 175.848 46.0373 175.891 46.08C175.976 46.1227 176.04 46.1653 176.083 46.208C176.168 46.208 176.104 46.272 175.891 46.4C175.806 46.4427 175.72 46.5707 175.635 46.784C175.55 46.9547 175.464 47.0827 175.379 47.168C175.251 47.2533 175.123 47.3173 174.995 47.36C174.867 47.4027 174.76 47.488 174.675 47.616C174.291 48 173.971 48.192 173.715 48.192ZM182.384 48.192C182.128 48.192 182 48.0427 182 47.744C182 47.5307 182.064 47.2747 182.192 46.976C182.533 46.2507 182.939 45.2267 183.408 43.904C183.877 42.5813 184.453 41.4507 185.136 40.512L187.632 34.944C187.632 34.944 187.589 34.9227 187.504 34.88C187.419 34.7947 187.376 34.7093 187.376 34.624C187.12 34.4533 186.843 34.2187 186.544 33.92C186.288 33.5787 186.267 33.2373 186.48 32.896C186.565 32.8107 186.629 32.768 186.672 32.768C186.715 32.768 186.736 32.768 186.736 32.768V32.64C186.736 32.4693 186.8 32.3627 186.928 32.32C187.099 32.2773 187.205 32.2133 187.248 32.128C187.333 31.5307 187.824 31.0827 188.72 30.784C189.659 30.4853 190.491 30.336 191.216 30.336C191.941 30.336 192.304 30.4427 192.304 30.656C192.304 30.784 192.176 30.9333 191.92 31.104C191.835 31.1893 191.621 31.3813 191.28 31.68C190.981 31.9787 190.704 32.3413 190.448 32.768L190 33.536L189.552 34.112C188.869 35.3493 188.315 36.3947 187.888 37.248C187.461 38.1013 186.949 39.1893 186.352 40.512C186.224 40.768 186.16 40.9813 186.16 41.152C186.16 41.3653 186.245 41.472 186.416 41.472C186.501 41.472 186.587 41.4507 186.672 41.408C186.8 41.3227 186.928 41.2587 187.056 41.216C187.397 41.0027 187.675 40.8107 187.888 40.64C188.144 40.4267 188.421 40.2133 188.72 40C188.848 39.872 188.955 39.872 189.04 40C189.125 40.0853 189.125 40.2133 189.04 40.384C188.869 40.7253 188.741 40.9387 188.656 41.024C188.613 41.0667 188.549 41.1093 188.464 41.152C188.379 41.1947 188.187 41.3867 187.888 41.728L187.632 42.24C187.547 42.3253 187.44 42.496 187.312 42.752C187.227 42.9653 187.184 43.0933 187.184 43.136C187.184 43.2213 187.141 43.264 187.056 43.264C186.971 43.2213 186.843 43.2853 186.672 43.456C186.629 43.4987 186.608 43.584 186.608 43.712C186.651 43.84 186.629 43.9467 186.544 44.032C186.501 44.16 186.437 44.2667 186.352 44.352C186.267 44.3947 186.224 44.4373 186.224 44.48C186.181 44.6507 186.096 44.7573 185.968 44.8C185.883 44.8 185.797 44.8427 185.712 44.928C185.669 44.928 185.648 44.9707 185.648 45.056C185.648 45.3973 185.605 45.5467 185.52 45.504C185.435 45.4613 185.349 45.504 185.264 45.632C185.179 45.8027 185.072 45.888 184.944 45.888C184.688 45.9733 184.581 46.0373 184.624 46.08C184.667 46.1227 184.731 46.1653 184.816 46.208C184.901 46.208 184.837 46.272 184.624 46.4C184.496 46.4427 184.389 46.5707 184.304 46.784C184.219 46.9547 184.133 47.0827 184.048 47.168C183.963 47.2533 183.856 47.3173 183.728 47.36C183.6 47.4027 183.493 47.488 183.408 47.616C183.024 48 182.683 48.192 182.384 48.192ZM201.456 47.68C201.285 47.68 201.136 47.68 201.008 47.68C200.88 47.6373 200.752 47.5947 200.624 47.552C200.197 47.4667 199.813 47.3387 199.472 47.168C199.173 46.9973 198.917 46.6773 198.704 46.208C198.661 45.9947 198.555 45.7173 198.384 45.376C198.256 45.0347 198.171 44.7147 198.128 44.416C198.085 44.2027 198.064 43.9467 198.064 43.648C198.021 43.4347 198 43.1573 198 42.816C197.915 42.3893 197.872 42.0053 197.872 41.664C197.915 41.3227 197.936 40.9173 197.936 40.448C197.936 39.9787 197.957 39.6373 198 39.424C198.085 39.04 198.128 38.848 198.128 38.848C198.128 38.8053 198.128 38.592 198.128 38.208C198.171 37.696 198.192 37.1627 198.192 36.608C198.192 36.0533 198.213 35.6053 198.256 35.264C198.384 33.984 198.128 33.344 197.488 33.344C197.232 33.344 196.891 33.4507 196.464 33.664C196.421 33.792 196.336 33.8773 196.208 33.92C196.123 33.92 195.995 33.9627 195.824 34.048L195.504 34.24C195.504 34.2827 195.461 34.304 195.376 34.304C195.291 34.2613 195.248 34.2827 195.248 34.368C195.291 34.5387 195.269 34.6453 195.184 34.688C195.141 34.7307 195.077 34.7093 194.992 34.624L194.288 35.136C194.288 35.1787 194.224 35.264 194.096 35.392L194.032 35.456C193.861 35.6267 193.712 35.712 193.584 35.712L193.392 35.904C193.392 35.9467 193.349 36.032 193.264 36.16C193.221 36.2453 193.115 36.2667 192.944 36.224L192.624 36.544C192.453 36.8 192.304 36.9493 192.176 36.992C192.091 37.0347 191.984 37.0773 191.856 37.12L191.344 37.76L191.088 37.824C191.088 37.9947 190.896 38.2507 190.512 38.592C190.171 38.9333 189.936 39.168 189.808 39.296C189.68 39.424 189.552 39.488 189.424 39.488C189.339 39.488 189.296 39.4453 189.296 39.36C189.296 39.3173 189.403 39.1467 189.616 38.848C189.787 38.6773 190.043 38.3573 190.384 37.888C190.768 37.4187 190.981 37.2053 191.024 37.248C191.237 37.0347 191.387 36.8213 191.472 36.608C191.557 36.352 191.707 36.1387 191.92 35.968C191.92 36.0107 191.92 36.0533 191.92 36.096C191.963 36.096 191.984 36.096 191.984 36.096C192.069 36.096 192.176 35.9893 192.304 35.776C192.432 35.52 192.517 35.4133 192.56 35.456L193.648 34.496C193.648 34.4533 193.755 34.368 193.968 34.24C194.139 34.1547 194.245 34.112 194.288 34.112C194.331 34.112 194.437 33.984 194.608 33.728L195.056 33.408C195.099 33.3227 195.141 33.344 195.184 33.472C195.269 33.5573 195.333 33.5787 195.376 33.536L195.568 33.088C195.653 32.96 195.781 32.8533 195.952 32.768C196.165 32.64 196.379 32.512 196.592 32.384C197.104 31.872 197.488 31.616 197.744 31.616H198C198.555 31.4027 199.067 31.296 199.536 31.296C200.219 31.296 200.752 31.552 201.136 32.064C201.221 32.192 201.307 32.4267 201.392 32.768C201.477 32.8107 201.499 32.8747 201.456 32.96C201.456 33.0027 201.477 33.0667 201.52 33.152C201.563 33.2373 201.648 33.344 201.776 33.472C201.904 33.5573 201.968 33.664 201.968 33.792V33.92C201.968 34.0907 201.861 34.24 201.648 34.368C201.861 34.5387 201.947 34.6453 201.904 34.688C201.904 34.688 201.883 34.752 201.84 34.88L201.712 35.776C201.669 36.0747 201.605 36.3093 201.52 36.48C201.435 36.608 201.349 36.8427 201.264 37.184C201.435 37.44 201.435 37.6107 201.264 37.696H201.136L201.072 37.952C201.072 38.0373 201.115 38.1227 201.2 38.208L201.008 38.592C201.051 38.5493 201.072 38.5493 201.072 38.592C201.115 38.592 201.136 38.592 201.136 38.592C201.093 38.6773 201.029 38.848 200.944 39.104C200.859 39.3173 200.795 39.488 200.752 39.616C200.709 39.8293 200.624 39.936 200.496 39.936C200.368 39.936 200.325 40.0427 200.368 40.256C200.411 40.2987 200.432 40.448 200.432 40.704C200.475 40.9173 200.453 41.024 200.368 41.024L200.24 41.792V41.984C200.24 42.1973 200.197 42.4107 200.112 42.624C200.069 42.8373 200.027 43.0507 199.984 43.264C199.941 43.4773 199.899 43.712 199.856 43.968C199.856 44.1813 199.856 44.3947 199.856 44.608C199.856 44.7787 199.856 44.9707 199.856 45.184C199.899 45.3547 199.941 45.5253 199.984 45.696C199.984 45.7387 200.048 45.8667 200.176 46.08C200.304 46.2933 200.368 46.4213 200.368 46.464L200.56 46.656C200.645 46.6987 200.773 46.6987 200.944 46.656C201.157 46.6133 201.307 46.6347 201.392 46.72C201.776 46.7627 202.267 46.5707 202.864 46.144C203.504 45.6747 204.08 45.1627 204.592 44.608C204.72 44.48 204.848 44.416 204.976 44.416C205.061 44.416 205.125 44.48 205.168 44.608C205.211 44.736 205.168 44.9067 205.04 45.12C204.357 46.1013 203.717 46.784 203.12 47.168C202.523 47.5093 201.968 47.68 201.456 47.68ZM214.707 52.032C214.579 51.8187 214.515 51.5413 214.515 51.2C214.515 51.0293 214.558 50.816 214.643 50.56C214.686 50.432 214.771 50.0693 214.899 49.472C215.07 48.9173 215.24 48.3627 215.411 47.808C215.582 47.2107 215.688 46.8693 215.731 46.784C215.774 46.784 215.902 46.464 216.115 45.824C216.371 45.1413 216.648 44.416 216.947 43.648C217.246 42.88 217.48 42.3893 217.651 42.176C217.822 41.7067 218.099 41.1307 218.483 40.448C218.91 39.7227 219.294 38.8693 219.635 37.888L219.507 38.016C218.995 38.528 218.334 39.3173 217.523 40.384C216.755 41.408 215.902 42.4747 214.963 43.584C214.024 44.6507 213.064 45.5893 212.083 46.4C211.144 47.168 210.248 47.552 209.395 47.552C208.712 47.552 207.923 47.3173 207.027 46.848C206.131 46.336 205.683 45.44 205.683 44.16C205.683 43.4347 205.875 42.6027 206.259 41.664C206.259 41.5787 206.28 41.472 206.323 41.344C206.408 41.216 206.494 41.1307 206.579 41.088C206.664 41.0453 206.75 41.0667 206.835 41.152C206.92 41.1947 206.984 41.1733 207.027 41.088C207.07 41.088 207.155 41.0667 207.283 41.024C207.411 40.9387 207.454 40.8747 207.411 40.832C207.368 40.7893 207.262 40.768 207.091 40.768C206.92 40.7253 206.835 40.6827 206.835 40.64C206.792 40.5547 206.792 40.4907 206.835 40.448C206.878 40.3627 206.899 40.2773 206.899 40.192C206.899 40.064 206.942 39.9787 207.027 39.936C207.155 39.8507 207.24 39.7653 207.283 39.68C207.283 39.4667 207.411 39.3173 207.667 39.232C207.71 39.1893 207.774 39.168 207.859 39.168C208.03 39.168 208.072 39.1253 207.987 39.04C207.902 38.912 207.859 38.784 207.859 38.656C207.902 38.5707 207.966 38.4853 208.051 38.4C208.179 38.272 208.264 38.1867 208.307 38.144C208.392 38.0587 208.499 37.9093 208.627 37.696C208.798 37.44 208.926 37.2907 209.011 37.248C209.096 37.248 209.139 37.2907 209.139 37.376C209.182 37.4187 209.224 37.4187 209.267 37.376C209.352 37.2907 209.374 37.184 209.331 37.056C209.288 36.928 209.31 36.8213 209.395 36.736C209.48 36.6507 209.608 36.5013 209.779 36.288C209.95 36.0747 210.078 35.9467 210.163 35.904C210.248 35.8187 210.291 35.8187 210.291 35.904C210.291 35.9467 210.312 35.968 210.355 35.968C210.44 35.968 210.504 35.8827 210.547 35.712C210.59 35.4987 210.632 35.3707 210.675 35.328C210.76 35.2853 210.867 35.2853 210.995 35.328C211.166 35.328 211.272 35.3067 211.315 35.264C211.4 35.2213 211.4 35.1573 211.315 35.072C211.272 34.944 211.272 34.8373 211.315 34.752C211.315 34.6667 211.358 34.6027 211.443 34.56C211.528 34.5173 211.592 34.4747 211.635 34.432C212.104 34.0053 212.574 33.6 213.043 33.216C213.555 32.832 214.067 32.4907 214.579 32.192C214.664 32.1493 214.75 32.1067 214.835 32.064C214.963 32.0213 215.07 32 215.155 32C215.24 32 215.304 32.0213 215.347 32.064C215.39 32.1067 215.432 32.128 215.475 32.128C215.56 32.0427 215.582 31.9787 215.539 31.936C215.539 31.8507 215.56 31.7653 215.603 31.68C215.646 31.5947 215.731 31.5307 215.859 31.488C215.987 31.4453 216.072 31.4027 216.115 31.36C216.627 31.1467 217.139 30.976 217.651 30.848C218.163 30.6773 218.654 30.592 219.123 30.592C219.848 30.592 220.552 30.7627 221.235 31.104C221.491 31.104 221.79 31.1467 222.131 31.232L222.515 30.592C222.6 30.4213 222.75 30.336 222.963 30.336H223.155C223.283 30.336 223.347 30.272 223.347 30.144C223.347 30.016 223.283 29.7387 223.155 29.312C223.155 28.9707 223.304 28.7787 223.603 28.736L223.731 28.672C223.902 27.776 224.136 27.1787 224.435 26.88L224.883 26.368C225.352 25.8133 225.715 25.216 225.971 24.576C226.056 24.4053 226.163 24.256 226.291 24.128C226.462 24 226.59 23.8507 226.675 23.68C226.76 23.552 226.782 23.424 226.739 23.296C226.696 23.1253 226.696 22.9973 226.739 22.912C227.464 21.76 228.275 20.736 229.171 19.84C229.256 19.6267 229.363 19.4133 229.491 19.2C229.662 18.9867 229.832 18.7733 230.003 18.56C230.216 18.2613 230.472 18.048 230.771 17.92C231.07 17.792 231.368 17.5787 231.667 17.28C231.752 17.1947 231.774 17.0667 231.731 16.896C231.731 16.6827 231.774 16.5333 231.859 16.448C233.224 15.2107 234.76 14.1867 236.467 13.376C238.174 12.5227 239.518 12.096 240.499 12.096C240.84 12.096 241.16 12.1387 241.459 12.224C241.758 12.2667 242.078 12.288 242.419 12.288H242.547C242.76 12.288 242.952 12.352 243.123 12.48C243.336 12.5653 243.55 12.6293 243.763 12.672C243.934 12.672 244.147 12.7147 244.403 12.8C244.616 12.8853 244.744 13.0133 244.787 13.184C244.83 13.3547 244.808 13.4827 244.723 13.568C244.68 13.6107 244.616 13.6107 244.531 13.568C244.446 13.5253 244.339 13.504 244.211 13.504C244.126 13.4613 244.04 13.4187 243.955 13.376C243.87 13.2907 243.784 13.2267 243.699 13.184C243.528 13.184 243.336 13.2267 243.123 13.312C242.952 13.3547 242.782 13.3547 242.611 13.312C242.184 13.312 241.907 13.2693 241.779 13.184C241.651 13.0987 241.416 13.0987 241.075 13.184C241.032 13.184 240.904 13.2053 240.691 13.248C240.478 13.2907 240.328 13.312 240.243 13.312C238.75 13.696 237.448 14.336 236.339 15.232C235.272 16.128 234.312 17.1307 233.459 18.24C232.648 19.3067 231.859 20.352 231.091 21.376C230.92 21.7173 230.75 22.0587 230.579 22.4C230.408 22.7413 230.238 23.0187 230.067 23.232C230.024 23.2747 229.982 23.2533 229.939 23.168C229.896 23.0827 229.854 23.0827 229.811 23.168C229.683 23.296 229.598 23.5093 229.555 23.808C229.512 24.1067 229.427 24.3413 229.299 24.512C229.256 24.5547 229.192 24.5333 229.107 24.448C229.064 24.32 229.022 24.2987 228.979 24.384C228.936 24.4693 228.894 24.64 228.851 24.896C228.808 25.152 228.744 25.3227 228.659 25.408C228.19 26.1333 227.656 26.816 227.059 27.456C226.504 28.096 225.971 28.864 225.459 29.76C224.648 31.0827 223.71 32.6827 222.643 34.56C221.576 36.3947 220.659 38.08 219.891 39.616C219.592 40.1707 219.379 40.6613 219.251 41.088C219.123 41.472 218.995 41.8347 218.867 42.176C218.782 42.432 218.739 42.5813 218.739 42.624C218.739 42.9653 218.931 43.136 219.315 43.136C219.443 43.136 219.571 43.1147 219.699 43.072C219.827 42.9867 219.955 42.9227 220.083 42.88C220.211 42.7947 220.36 42.7307 220.531 42.688C220.702 42.6453 220.851 42.5813 220.979 42.496C221.022 42.4533 221.278 42.304 221.747 42.048C222.216 41.7493 222.664 41.3867 223.091 40.96C223.176 40.9173 223.283 40.832 223.411 40.704C223.539 40.576 223.624 40.4907 223.667 40.448L224.371 39.872C224.456 39.744 224.563 39.68 224.691 39.68C224.862 39.68 224.99 39.7653 225.075 39.936C225.16 40.1067 225.139 40.2773 225.011 40.448C224.968 40.5333 224.84 40.64 224.627 40.768C224.414 40.8533 224.2 41.0027 223.987 41.216C223.646 41.5147 223.24 41.8347 222.771 42.176C222.344 42.5173 221.939 42.816 221.555 43.072C221.384 43.1573 221.192 43.2853 220.979 43.456C220.766 43.584 220.616 43.7333 220.531 43.904L219.955 44.8C219.955 44.8853 219.912 44.928 219.827 44.928C219.784 44.8853 219.656 44.9493 219.443 45.12C219.4 45.1627 219.379 45.248 219.379 45.376C219.379 45.504 219.336 45.6107 219.251 45.696C219.208 45.824 219.144 45.9307 219.059 46.016C218.974 46.0587 218.931 46.1013 218.931 46.144C218.931 46.272 218.867 46.3573 218.739 46.4C218.611 46.4427 218.504 46.5067 218.419 46.592C218.376 46.6347 218.376 46.6987 218.419 46.784C218.462 46.8693 218.462 46.9547 218.419 47.04L217.843 48.384C217.8 48.4693 217.736 48.5547 217.651 48.64C217.608 48.7253 217.544 48.7893 217.459 48.832C217.416 48.8747 217.352 48.8533 217.267 48.768C217.182 48.7253 217.118 48.7467 217.075 48.832C217.075 48.9173 217.096 49.0453 217.139 49.216C217.224 49.3867 217.203 49.5147 217.075 49.6C216.947 49.6853 216.84 49.856 216.755 50.112C216.67 50.4107 216.584 50.624 216.499 50.752C216.371 50.9227 216.222 51.0293 216.051 51.072C215.923 51.1147 215.795 51.2427 215.667 51.456C215.624 51.4987 215.475 51.6693 215.219 51.968C215.006 52.3093 214.835 52.3307 214.707 52.032ZM208.371 46.4C208.499 46.4 208.691 46.3573 208.947 46.272C210.142 45.632 211.187 44.9707 212.083 44.288C212.083 44.2453 212.211 44.1813 212.467 44.096C212.723 44.0107 212.83 43.9467 212.787 43.904L213.107 43.84C213.107 43.84 213.171 43.8613 213.299 43.904C213.427 43.9467 213.448 43.8827 213.363 43.712C213.576 43.4987 213.619 43.3707 213.491 43.328C213.363 43.2853 213.32 43.264 213.363 43.264C213.491 43.0507 213.598 42.944 213.683 42.944C213.768 42.944 213.896 42.8587 214.067 42.688C214.195 42.6027 214.323 42.5173 214.451 42.432C214.579 42.304 214.686 42.1973 214.771 42.112C214.771 42.0693 214.771 42.048 214.771 42.048C214.814 42.0053 214.835 41.9627 214.835 41.92C214.835 41.92 214.899 41.92 215.027 41.92C215.198 41.8773 215.304 41.792 215.347 41.664C215.731 41.5787 215.795 41.536 215.539 41.536C215.283 41.4933 215.155 41.4507 215.155 41.408C215.155 41.408 215.24 41.344 215.411 41.216C215.582 41.088 215.624 41.0027 215.539 40.96V40.896L215.731 40.64L215.987 40.576L216.051 40.384C216.051 40.256 216.2 40.128 216.499 40C216.84 39.8293 217.032 39.68 217.075 39.552C217.715 38.6987 218.248 37.952 218.675 37.312C219.144 36.6293 219.464 36.0747 219.635 35.648C219.72 35.4773 219.806 35.328 219.891 35.2C219.976 35.072 220.062 34.944 220.147 34.816C220.232 34.4747 220.318 34.1547 220.403 33.856C220.488 33.5147 220.595 33.152 220.723 32.768C220.552 32.7253 220.275 32.704 219.891 32.704C219.251 32.704 218.504 32.832 217.651 33.088C216.84 33.344 215.944 33.8347 214.963 34.56C214.792 34.688 214.579 34.88 214.323 35.136C214.11 35.392 213.918 35.4987 213.747 35.456H213.619C213.491 35.456 213.427 35.5413 213.427 35.712C213.47 35.84 213.406 35.9893 213.235 36.16C213.15 36.2453 213.043 36.3307 212.915 36.416C212.787 36.4587 212.638 36.5653 212.467 36.736C212.382 36.8213 212.318 36.928 212.275 37.056C212.232 37.1413 212.147 37.248 212.019 37.376C211.848 37.5893 211.635 37.824 211.379 38.08C211.166 38.2933 210.974 38.4853 210.803 38.656C210.632 38.8267 210.419 39.04 210.163 39.296C209.95 39.552 209.779 39.808 209.651 40.064C209.608 40.1067 209.544 40.064 209.459 39.936C209.374 39.808 209.31 39.7653 209.267 39.808V39.872C209.267 39.9573 209.31 40.0853 209.395 40.256C209.48 40.384 209.48 40.4907 209.395 40.576C209.352 40.6613 209.267 40.832 209.139 41.088C209.054 41.344 208.968 41.536 208.883 41.664C208.542 42.3467 208.243 43.0293 207.987 43.712C207.774 44.3947 207.667 44.9707 207.667 45.44C207.667 46.08 207.902 46.4 208.371 46.4Z" fill="#324009"/>
</svg>
